<svg width="596" height="212" viewBox="0 0 596 212" fill="none" xmlns="http://www.w3.org/2000/svg">
<rect x="0.5" y="0.5" width="595" height="211" rx="15.5" fill="#7B61FF" fill-opacity="0.3"/>
<rect x="0.5" y="0.5" width="595" height="211" rx="15.5" stroke="#7B61FF" stroke-dasharray="10 5"/>
<path d="M29.958 41C29.9307 41.1905 29.9166 41.3853 29.9166 41.5833C29.9166 43.8385 31.7448 45.6667 34 45.6667C36.2551 45.6667 38.0833 43.8385 38.0833 41.5833C38.0833 41.3853 38.0692 41.1905 38.042 41H35.6504C35.7149 41.1825 35.75 41.3788 35.75 41.5833C35.75 42.5498 34.9665 43.3333 34 43.3333C33.0335 43.3333 32.25 42.5498 32.25 41.5833C32.25 41.3788 32.2851 41.1825 32.3496 41H29.958Z" fill="white"/>
<path d="M34 42.1667H39.8356C42.0907 42.1667 43.9189 40.3385 43.9189 38.0833C43.9189 36.4277 43.0057 35.517 41.9603 34.4745L41.8471 34.3616C41.839 34.3466 41.8137 34.2973 41.7825 34.1934C41.7304 34.0198 41.6854 33.7735 41.6527 33.4464C41.5868 32.7871 41.5856 31.9756 41.5856 31.0833C41.5856 29.0834 40.9181 27.5992 40.0772 26.7584C39.0769 25.7581 38.1637 25.3825 37.5043 25.1847C37.202 25.094 37.043 24.8908 36.8188 24.6666C36.0717 23.9196 35.0586 23.5 34.0022 23.5L34 23.5V25.8353C34.0071 25.8338 34.0077 25.8333 34.0023 25.8333C34.4399 25.8333 34.8595 26.0071 35.1689 26.3165C35.3013 26.449 35.3736 26.6057 35.4924 26.7498C35.6998 27.0014 35.9493 27.1275 36.0985 27.1913C36.2494 27.2558 36.4055 27.2999 36.5067 27.3281C36.5453 27.3388 36.5804 27.3483 36.6138 27.3575C36.688 27.3777 36.7543 27.3958 36.8337 27.4196C37.216 27.5343 37.7611 27.7421 38.4273 28.4083C38.7531 28.7341 39.2523 29.5833 39.2523 31.0833V31.1207C39.2522 31.9682 39.2522 32.8911 39.331 33.6786C39.3712 34.0807 39.4356 34.4906 39.5476 34.8639C39.6553 35.2231 39.8368 35.6511 40.1773 35.9916C41.4109 37.2252 41.5856 37.4755 41.5856 38.0833C41.5856 39.0498 40.8021 39.8333 39.8356 39.8333H34V42.1667Z" fill="white"/>
<path d="M34.0023 42.1667H28.1667C25.9115 42.1667 24.0833 40.3385 24.0833 38.0833C24.0833 36.4277 24.9965 35.517 26.0419 34.4745L26.1551 34.3616C26.1632 34.3466 26.1886 34.2973 26.2198 34.1934C26.2718 34.0198 26.3168 33.7735 26.3495 33.4464C26.4155 32.7871 26.4166 31.9756 26.4166 31.0833C26.4166 29.0834 27.0842 27.5992 27.925 26.7584C28.9253 25.7581 29.8385 25.3825 30.498 25.1847C30.8003 25.094 30.9592 24.8908 31.1835 24.6666C31.9305 23.9196 32.9436 23.5 34 23.5L34.0022 23.5L34.0023 25.8353C33.9951 25.8338 33.9946 25.8333 33.9999 25.8333C33.5624 25.8333 33.1428 26.0071 32.8334 26.3165C32.7009 26.449 32.6287 26.6057 32.5099 26.7498C32.3024 27.0014 32.053 27.1275 31.9037 27.1913C31.7528 27.2558 31.5968 27.2999 31.4955 27.3281C31.4569 27.3388 31.4218 27.3483 31.3884 27.3575C31.3143 27.3777 31.2479 27.3958 31.1685 27.4196C30.7863 27.5343 30.2411 27.7421 29.5749 28.4083C29.2491 28.7341 28.75 29.5833 28.75 31.0833V31.1207C28.75 31.9682 28.75 32.8911 28.6713 33.6786C28.6311 34.0807 28.5667 34.4906 28.4547 34.8639C28.3469 35.2231 28.1654 35.6511 27.8249 35.9916C26.5914 37.2252 26.4166 37.4755 26.4166 38.0833C26.4166 39.0498 27.2002 39.8333 28.1667 39.8333H34.0023V42.1667Z" fill="white"/>
<path d="M77.958 41C77.9307 41.1905 77.9166 41.3853 77.9166 41.5833C77.9166 43.8385 79.7448 45.6667 82 45.6667C84.2551 45.6667 86.0833 43.8385 86.0833 41.5833C86.0833 41.3853 86.0692 41.1905 86.042 41H83.6504C83.7149 41.1825 83.75 41.3788 83.75 41.5833C83.75 42.5498 82.9665 43.3333 82 43.3333C81.0335 43.3333 80.25 42.5498 80.25 41.5833C80.25 41.3788 80.2851 41.1825 80.3496 41H77.958Z" fill="white"/>
<path d="M82 42.1667H87.8356C90.0907 42.1667 91.9189 40.3385 91.9189 38.0833C91.9189 36.4277 91.0057 35.517 89.9603 34.4745L89.8471 34.3616C89.839 34.3466 89.8137 34.2973 89.7825 34.1934C89.7304 34.0198 89.6854 33.7735 89.6527 33.4464C89.5868 32.7871 89.5856 31.9756 89.5856 31.0833C89.5856 29.0834 88.9181 27.5992 88.0772 26.7584C87.0769 25.7581 86.1637 25.3825 85.5043 25.1847C85.202 25.094 85.043 24.8908 84.8188 24.6666C84.0717 23.9196 83.0586 23.5 82.0022 23.5L82 23.5V25.8353C82.0071 25.8338 82.0077 25.8333 82.0023 25.8333C82.4399 25.8333 82.8595 26.0071 83.1689 26.3165C83.3013 26.449 83.3736 26.6057 83.4924 26.7498C83.6998 27.0014 83.9493 27.1275 84.0985 27.1913C84.2494 27.2558 84.4055 27.2999 84.5067 27.3281C84.5453 27.3388 84.5804 27.3483 84.6138 27.3575C84.688 27.3777 84.7543 27.3958 84.8337 27.4196C85.216 27.5343 85.7611 27.7421 86.4273 28.4083C86.7531 28.7341 87.2523 29.5833 87.2523 31.0833V31.1207C87.2522 31.9682 87.2522 32.8911 87.331 33.6786C87.3712 34.0807 87.4356 34.4906 87.5476 34.8639C87.6553 35.2231 87.8368 35.6511 88.1773 35.9916C89.4109 37.2252 89.5856 37.4755 89.5856 38.0833C89.5856 39.0498 88.8021 39.8333 87.8356 39.8333H82V42.1667Z" fill="white"/>
<path d="M82.0023 42.1667H76.1667C73.9115 42.1667 72.0833 40.3385 72.0833 38.0833C72.0833 36.4277 72.9965 35.517 74.0419 34.4745L74.1551 34.3616C74.1632 34.3466 74.1886 34.2973 74.2198 34.1934C74.2718 34.0198 74.3168 33.7735 74.3495 33.4464C74.4155 32.7871 74.4166 31.9756 74.4166 31.0833C74.4166 29.0834 75.0842 27.5992 75.925 26.7584C76.9253 25.7581 77.8385 25.3825 78.498 25.1847C78.8003 25.094 78.9592 24.8908 79.1835 24.6666C79.9305 23.9196 80.9436 23.5 82 23.5L82.0022 23.5L82.0023 25.8353C81.9951 25.8338 81.9946 25.8333 81.9999 25.8333C81.5624 25.8333 81.1428 26.0071 80.8334 26.3165C80.7009 26.449 80.6287 26.6057 80.5099 26.7498C80.3024 27.0014 80.053 27.1275 79.9037 27.1913C79.7528 27.2558 79.5968 27.2999 79.4955 27.3281C79.4569 27.3388 79.4218 27.3483 79.3884 27.3575C79.3143 27.3777 79.2479 27.3958 79.1685 27.4196C78.7863 27.5343 78.2411 27.7421 77.5749 28.4083C77.2491 28.7341 76.75 29.5833 76.75 31.0833V31.1207C76.75 31.9682 76.75 32.8911 76.6713 33.6786C76.6311 34.0807 76.5667 34.4906 76.4547 34.8639C76.3469 35.2231 76.1654 35.6511 75.8249 35.9916C74.5914 37.2252 74.4166 37.4755 74.4166 38.0833C74.4166 39.0498 75.2002 39.8333 76.1667 39.8333H82.0023V42.1667Z" fill="white"/>
<path fill-rule="evenodd" clip-rule="evenodd" d="M78.3409 33.2575C78.7509 32.8475 79.4158 32.8475 79.8258 33.2575L81.125 34.5567L84.1742 31.5075C84.5843 31.0975 85.2491 31.0975 85.6591 31.5075C86.0692 31.9176 86.0692 32.5824 85.6591 32.9925L81.8675 36.7841C81.4574 37.1942 80.7926 37.1942 80.3825 36.7841L78.3409 34.7425C77.9308 34.3324 77.9308 33.6676 78.3409 33.2575Z" fill="white"/>
<path fill-rule="evenodd" clip-rule="evenodd" d="M123.583 34.5834C123.583 38.1272 126.456 41 130 41C133.544 41 136.417 38.1272 136.417 34.5834C136.417 31.0395 133.544 28.1667 130 28.1667C126.456 28.1667 123.583 31.0395 123.583 34.5834ZM125.917 34.5834C125.917 32.3282 127.745 30.5 130 30.5C132.255 30.5 134.083 32.3282 134.083 34.5834C134.083 36.8385 132.255 38.6667 130 38.6667C127.745 38.6667 125.917 36.8385 125.917 34.5834Z" fill="white"/>
<path fill-rule="evenodd" clip-rule="evenodd" d="M127.587 22.3334C126.878 22.3334 126.324 22.6242 125.912 22.9521C125.543 23.2459 125.234 23.6167 125.009 23.8855L124.981 23.9189C124.72 24.2315 124.553 24.4251 124.388 24.5564C124.25 24.6661 124.193 24.667 124.167 24.667L124.099 24.667C123.622 24.6669 123.298 24.6669 123.012 24.695C120.242 24.9678 118.051 27.159 117.778 29.9285C117.75 30.2148 117.75 30.5394 117.75 31.0161L117.75 37.0375C117.75 38.3232 117.75 39.3602 117.82 40.1995C117.891 41.0638 118.043 41.8224 118.407 42.5224C118.96 43.5878 119.829 44.4565 120.894 45.01C121.594 45.3736 122.353 45.5253 123.217 45.597C124.056 45.6667 125.093 45.6667 126.379 45.6667H133.621C134.906 45.6667 135.944 45.6667 136.783 45.597C137.647 45.5253 138.406 45.3736 139.106 45.01C140.171 44.4565 141.04 43.5878 141.593 42.5224C141.957 41.8224 142.109 41.0638 142.18 40.1995C142.25 39.3602 142.25 38.3233 142.25 37.0376L142.25 31.0162C142.25 30.5394 142.25 30.2148 142.222 29.9285C141.949 27.159 139.758 24.9678 136.988 24.695C136.702 24.6669 136.378 24.6669 135.901 24.667L135.833 24.667L135.831 24.6671L135.83 24.6663C135.821 24.6626 135.79 24.6467 135.733 24.5964C135.598 24.4769 135.46 24.2954 135.229 23.9793L135.203 23.9432C135.009 23.6767 134.732 23.296 134.389 22.9921C134 22.6468 133.456 22.3334 132.74 22.3334H127.587ZM124.167 27.0003C124.875 27.0003 125.43 26.7094 125.842 26.3816C126.21 26.0877 126.52 25.717 126.744 25.4482L126.772 25.4148C127.033 25.1022 127.201 24.9086 127.366 24.7773C127.503 24.6676 127.56 24.6667 127.587 24.6667H132.74L132.742 24.6666L132.744 24.6674C132.752 24.6711 132.784 24.687 132.84 24.7373C132.975 24.8568 133.114 25.0383 133.344 25.3543L133.37 25.3905C133.565 25.657 133.842 26.0376 134.184 26.3416C134.573 26.6869 135.118 27.0003 135.833 27.0003C136.403 27.0003 136.603 27.0017 136.76 27.0171C138.421 27.1808 139.736 28.4955 139.9 30.1572C139.915 30.314 139.917 30.5141 139.917 31.0836V36.9867C139.917 38.3351 139.916 39.2751 139.855 40.0064C139.795 40.7238 139.684 41.1353 139.523 41.4468C139.191 42.086 138.669 42.6073 138.03 42.9393C137.719 43.1011 137.307 43.2121 136.59 43.2717C135.858 43.3324 134.918 43.3334 133.57 43.3334H126.43C125.082 43.3334 124.142 43.3324 123.41 43.2717C122.693 43.2121 122.281 43.1011 121.97 42.9393C121.331 42.6073 120.809 42.086 120.477 41.4468C120.316 41.1353 120.205 40.7238 120.145 40.0064C120.084 39.2751 120.083 38.3351 120.083 36.9867V31.0836C120.083 30.5141 120.085 30.314 120.1 30.1572C120.264 28.4955 121.579 27.1808 123.24 27.0171C123.397 27.0017 123.597 27.0003 124.167 27.0003Z" fill="white"/>
<path fill-rule="evenodd" clip-rule="evenodd" d="M173.917 22.3334C171.984 22.3334 170.417 23.9004 170.417 25.8334V42.1667C170.417 44.0997 171.984 45.6667 173.917 45.6667H182.083C184.016 45.6667 185.583 44.0997 185.583 42.1667V25.8334C185.583 23.9004 184.016 22.3334 182.083 22.3334H173.917ZM172.75 25.8334C172.75 25.189 173.272 24.6667 173.917 24.6667H182.083C182.728 24.6667 183.25 25.189 183.25 25.8334V42.1667C183.25 42.811 182.728 43.3334 182.083 43.3334H173.917C173.272 43.3334 172.75 42.811 172.75 42.1667V25.8334Z" fill="white"/>
<path fill-rule="evenodd" clip-rule="evenodd" d="M190.833 28.3714C190.833 26.7643 189.672 25.3928 188.086 25.1286C187.387 25.012 186.75 25.5514 186.75 26.2606V26.4505C186.75 26.9043 187.04 27.3072 187.471 27.4507L187.699 27.5269C188.178 27.6862 188.5 28.1336 188.5 28.6376V39.3627C188.5 39.8667 188.178 40.3141 187.699 40.4735L187.471 40.5496C187.04 40.6931 186.75 41.096 186.75 41.5498V41.7397C186.75 42.4489 187.387 42.9883 188.086 42.8718C189.672 42.6076 190.833 41.236 190.833 39.629V28.3714Z" fill="white"/>
<path fill-rule="evenodd" clip-rule="evenodd" d="M164.875 28.3714C164.875 26.7643 166.037 25.3928 167.622 25.1286C168.322 25.012 168.958 25.5514 168.958 26.2606V26.4505C168.958 26.9043 168.668 27.3072 168.237 27.4507L168.009 27.5269C167.531 27.6862 167.208 28.1336 167.208 28.6376V39.3627C167.208 39.8667 167.531 40.3141 168.009 40.4735L168.237 40.5496C168.668 40.6932 168.958 41.096 168.958 41.5498V41.7397C168.958 42.4489 168.322 42.9883 167.622 42.8718C166.037 42.6076 164.875 41.236 164.875 39.629V28.3714Z" fill="white"/>
<path d="M225.972 39.25C225.848 39.25 225.724 39.2217 225.609 39.1369C224.197 38.1185 222.736 37.0058 221.658 35.4688C221.276 34.9313 220.77 34.1015 220.751 33.0454C220.722 31.7818 221.448 30.6219 222.555 30.1505C223.662 29.679 224.989 29.9524 225.915 30.8577L226 30.9331C226.058 30.8765 226.105 30.8294 226.163 30.7728C227.213 29.8299 228.654 29.6507 229.771 30.3108C230.926 30.9991 231.489 32.4136 231.155 33.7526C230.859 34.9407 230.114 35.8459 229.437 36.5814C228.501 37.5904 227.394 38.4202 226.44 39.0991C226.335 39.1746 226.163 39.2406 225.981 39.2406L225.972 39.25Z" fill="white"/>
<path fill-rule="evenodd" clip-rule="evenodd" d="M224.951 22.0431C224.951 21.4793 225.408 21.0223 225.972 21.0223C233.153 21.0223 238.978 26.834 238.978 34.007C238.978 38.4405 236.751 42.3541 233.359 44.695C232.895 45.0153 232.259 44.8987 231.939 44.4347C231.619 43.9707 231.735 43.3349 232.199 43.0147C235.064 41.038 236.936 37.7403 236.936 34.007C236.936 27.965 232.029 23.0639 225.972 23.0639C225.408 23.0639 224.951 22.6069 224.951 22.0431ZM218.164 23.6193C218.615 23.2811 219.255 23.3727 219.593 23.8238C219.931 24.2749 219.839 24.9147 219.388 25.2529C218.919 25.6046 218.479 25.9929 218.073 26.4137C217.681 26.8192 217.035 26.8304 216.629 26.4386C216.224 26.0469 216.213 25.4007 216.604 24.9952C217.086 24.4965 217.608 24.0362 218.164 23.6193ZM214.268 28.332C214.515 27.8252 215.126 27.6146 215.633 27.8617C216.14 28.1087 216.35 28.7198 216.103 29.2266C215.551 30.3592 215.189 31.6011 215.059 32.9118C215.003 33.4728 214.503 33.8824 213.942 33.8266C213.381 33.7708 212.971 33.2707 213.027 32.7097C213.182 31.1537 213.612 29.6778 214.268 28.332ZM214.16 36.148C214.701 35.9899 215.268 36.3005 215.426 36.8417C215.887 38.4227 216.713 39.8773 217.803 41.106C218.177 41.5277 218.139 42.1729 217.717 42.5471C217.295 42.9213 216.65 42.8827 216.276 42.461C214.996 41.0184 214.016 39.2996 213.466 37.414C213.308 36.8728 213.618 36.306 214.16 36.148ZM219.676 44.0903C219.94 43.5919 220.558 43.4016 221.056 43.6652C223.18 44.7888 225.656 45.2382 228.163 44.7304C228.716 44.6185 229.254 44.9757 229.366 45.5283C229.478 46.0809 229.121 46.6195 228.568 46.7315C225.561 47.3405 222.608 46.7956 220.101 45.4699C219.603 45.2063 219.413 44.5886 219.676 44.0903Z" fill="white"/>
<path d="M279.833 36.3334C279.833 35.9682 279.401 35.7955 279.075 35.96C278.601 36.1988 278.066 36.3334 277.5 36.3334C275.567 36.3334 274 34.7663 274 32.8334C274 32.267 274.135 31.732 274.373 31.2587C274.538 30.9328 274.365 30.5 274 30.5C270.778 30.5 268.167 33.1117 268.167 36.3334C268.167 39.555 270.778 42.1667 274 42.1667C277.222 42.1667 279.833 39.555 279.833 36.3334Z" fill="white"/>
<path fill-rule="evenodd" clip-rule="evenodd" d="M262.687 33.9501C264.762 27.8069 271.009 24.2529 277.113 25.9756C281.078 27.0947 284.037 30.1774 285.313 33.9497C285.508 34.5262 285.228 35.1759 284.655 35.3907C284.075 35.6086 283.453 35.2837 283.256 34.7012C282.204 31.5911 279.775 29.0744 276.541 28.1617C271.573 26.7597 266.452 29.6447 264.744 34.7007C264.547 35.2834 263.926 35.6085 263.345 35.3909C262.773 35.1763 262.492 34.5267 262.687 33.9501Z" fill="white"/>
<path fill-rule="evenodd" clip-rule="evenodd" d="M318.5 27C316.084 27 314.125 28.9588 314.125 31.375C314.125 33.7913 316.084 35.75 318.5 35.75C320.916 35.75 322.875 33.7913 322.875 31.375C322.875 28.9588 320.916 27 318.5 27ZM315.875 31.375C315.875 29.9253 317.05 28.75 318.5 28.75C319.95 28.75 321.125 29.9253 321.125 31.375C321.125 32.8248 319.95 34 318.5 34C317.05 34 315.875 32.8248 315.875 31.375Z" fill="white"/>
<path d="M310.917 42.3523C310.917 39.1892 313.481 36.625 316.644 36.625H320.356C323.519 36.625 326.083 39.1892 326.083 42.3523V42.6705C326.083 43.1977 325.656 43.625 325.129 43.625C324.602 43.625 324.174 43.1977 324.174 42.6705V42.3523C324.174 40.2436 322.465 38.5341 320.356 38.5341H316.644C314.535 38.5341 312.826 40.2436 312.826 42.3523V42.6705C312.826 43.1977 312.398 43.625 311.871 43.625C311.344 43.625 310.917 43.1977 310.917 42.6705V42.3523Z" fill="white"/>
<path d="M323.417 26.8609C323.898 26.2345 324.652 25.8334 325.5 25.8334C326.95 25.8334 328.125 27.0086 328.125 28.4584C328.125 29.9081 326.95 31.0834 325.5 31.0834C325.395 31.0834 325.292 31.0773 325.191 31.0655C324.711 31.0094 324.277 31.353 324.22 31.833C324.164 32.313 324.508 32.7476 324.988 32.8036C325.156 32.8233 325.327 32.8334 325.5 32.8334C327.916 32.8334 329.875 30.8746 329.875 28.4584C329.875 26.0421 327.916 24.0834 325.5 24.0834C324.085 24.0834 322.827 24.7557 322.029 25.7947C321.735 26.1779 321.807 26.7272 322.19 27.0217C322.573 27.3161 323.122 27.2441 323.417 26.8609Z" fill="white"/>
<path d="M324.917 34.2917L327.356 34.2917C330.519 34.2917 333.083 36.8559 333.083 40.019V40.3372C333.083 40.8643 332.656 41.2917 332.129 41.2917C331.602 41.2917 331.174 40.8643 331.174 40.3372V40.019C331.174 37.9103 329.465 36.2008 327.356 36.2008H324.917C323.167 36.2008 323.167 34.2917 324.917 34.2917Z" fill="white"/>
<path d="M359.5 44.5C359.5 43.8557 360.022 43.3334 360.667 43.3334H379.333C379.978 43.3334 380.5 43.8557 380.5 44.5C380.5 45.1444 379.978 45.6667 379.333 45.6667H360.667C360.022 45.6667 359.5 45.1444 359.5 44.5Z" fill="white"/>
<path d="M374.908 33.6583C375.364 33.2027 375.364 32.464 374.908 32.0084C374.453 31.5528 373.714 31.5528 373.258 32.0084L371.167 34.1001V35.1667C371.167 35.811 370.644 36.3334 370 36.3334C369.356 36.3334 368.833 35.811 368.833 35.1667V34.1001L366.742 32.0084C366.286 31.5528 365.547 31.5528 365.092 32.0084C364.636 32.464 364.636 33.2027 365.092 33.6583L369.175 37.7417C369.631 38.1973 370.369 38.1973 370.825 37.7417L374.908 33.6583Z" fill="white"/>
<path fill-rule="evenodd" clip-rule="evenodd" d="M370 22.3334C369.356 22.3334 368.833 22.8557 368.833 23.5V34.1001L370 35.2668L371.167 34.1001V23.5C371.167 22.8557 370.644 22.3334 370 22.3334Z" fill="white"/>
<path d="M368.833 35.1667C368.833 35.811 369.356 36.3334 370 36.3334C370.644 36.3334 371.167 35.811 371.167 35.1667V34.1001L370 35.2668L368.833 34.1001V35.1667Z" fill="white"/>
<path d="M410.708 35.4584C410.708 35.9416 411.1 36.3334 411.583 36.3334C412.067 36.3334 412.458 35.9416 412.458 35.4584V33.7084H414.208C414.692 33.7084 415.083 33.3166 415.083 32.8334C415.083 32.3501 414.692 31.9584 414.208 31.9584H412.458V30.2084C412.458 29.7251 412.067 29.3334 411.583 29.3334C411.1 29.3334 410.708 29.7251 410.708 30.2084V31.9584H408.958C408.475 31.9584 408.083 32.3501 408.083 32.8334C408.083 33.3166 408.475 33.7084 408.958 33.7084H410.708V35.4584Z" fill="white"/>
<path fill-rule="evenodd" clip-rule="evenodd" d="M416.833 29.9167C416.833 32.1719 418.661 34 420.917 34C423.172 34 425 32.1719 425 29.9167C425 27.6615 423.172 25.8334 420.917 25.8334C418.661 25.8334 416.833 27.6615 416.833 29.9167ZM418.583 29.9167C418.583 28.628 419.628 27.5834 420.917 27.5834C422.205 27.5834 423.25 28.628 423.25 29.9167C423.25 31.2054 422.205 32.25 420.917 32.25C419.628 32.25 418.583 31.2054 418.583 29.9167Z" fill="white"/>
<path d="M414.5 40.4167C414.5 37.5172 416.85 35.1667 419.75 35.1667H422.083C424.983 35.1667 427.333 37.5172 427.333 40.4167V40.7084C427.333 41.1916 426.941 41.5834 426.458 41.5834C425.975 41.5834 425.583 41.1916 425.583 40.7084V40.4167C425.583 38.4837 424.016 36.9167 422.083 36.9167H419.75C417.817 36.9167 416.25 38.4837 416.25 40.4167V40.7084C416.25 41.1916 415.858 41.5834 415.375 41.5834C414.892 41.5834 414.5 41.1916 414.5 40.7084V40.4167Z" fill="white"/>
<path d="M477.667 34.0713C477.667 27.5886 472.443 22.3334 466 22.3334C459.557 22.3334 454.333 27.5886 454.333 34.0713C454.333 39.9301 458.6 44.7861 464.177 45.6667V37.4643H461.215V34.0713H464.177V31.4853C464.177 28.5435 465.919 26.9185 468.584 26.9185C469.86 26.9185 471.195 27.1478 471.195 27.1478V30.0364H469.724C468.275 30.0364 467.823 30.9412 467.823 31.8695V34.0713H471.059L470.541 37.4643H467.823V45.6667C473.4 44.7861 477.667 39.9301 477.667 34.0713Z" fill="white"/>
<path d="M514.168 45.0834C510.795 45.0612 508.202 43.9706 506.459 41.8426C504.911 39.9473 504.11 37.3117 504.083 34.0089V33.9934C504.11 30.6883 504.911 28.0549 506.462 26.1597C508.202 24.0295 510.798 22.9389 514.168 22.9167H514.182C516.768 22.9344 518.932 23.5861 520.611 24.8541C522.192 26.0466 523.304 27.7446 523.917 29.9036L521.995 30.429C520.955 26.7715 518.324 24.9028 514.173 24.874C511.433 24.894 509.36 25.7385 508.012 27.3833C506.753 28.9239 506.102 31.1494 506.077 34C506.102 36.8507 506.753 39.0762 508.015 40.6168C509.362 42.2638 511.435 43.1083 514.175 43.126C516.646 43.1083 518.281 42.5431 519.639 41.2374C521.19 39.7478 521.163 37.9191 520.666 36.8063C520.374 36.1502 519.843 35.6049 519.126 35.1904C518.945 36.4384 518.541 37.4492 517.917 38.2117C517.082 39.2291 515.9 39.7855 514.403 39.8653C513.271 39.9252 512.179 39.6636 511.333 39.125C510.332 38.4888 509.746 37.5179 509.683 36.3874C509.622 35.2879 510.067 34.2771 510.936 33.5412C511.765 32.8385 512.932 32.4262 514.311 32.3486C515.326 32.2932 516.278 32.3375 517.155 32.4794C517.037 31.7944 516.802 31.2491 516.449 30.8568C515.966 30.3159 515.217 30.0411 514.227 30.0344C514.218 30.0344 514.209 30.0344 514.2 30.0344C513.404 30.0344 512.324 30.2494 511.636 31.2536L509.981 30.1652C510.904 28.8219 512.4 28.0815 514.2 28.0815C514.214 28.0815 514.227 28.0815 514.241 28.0815C517.25 28.0993 519.042 29.9058 519.221 33.0579C519.323 33.1001 519.425 33.1444 519.524 33.1887C520.928 33.836 521.954 34.8158 522.495 36.0238C523.245 37.7063 523.315 40.4483 521.036 42.6362C519.293 44.3075 517.18 45.0634 514.182 45.0834H514.168ZM515.12 34.286C514.892 34.286 514.661 34.2926 514.424 34.3059C512.694 34.4012 511.616 35.1793 511.677 36.2854C511.74 37.4447 513.045 37.9834 514.299 37.9169C515.452 37.857 516.954 37.4159 517.207 34.4899C516.569 34.3547 515.871 34.286 515.12 34.286Z" fill="white" stroke="white" stroke-width="0.233333"/>
<path fill-rule="evenodd" clip-rule="evenodd" d="M558.963 22.3333H565.037C566.323 22.3333 567.36 22.3333 568.199 22.403C569.064 22.4748 569.822 22.6264 570.522 22.9901C571.588 23.5435 572.456 24.4122 573.01 25.4776C573.374 26.1776 573.525 26.9362 573.597 27.8005C573.667 28.6398 573.667 29.6768 573.667 30.9626V37.0374C573.667 38.3231 573.667 39.3602 573.597 40.1995C573.525 41.0637 573.374 41.8223 573.01 42.5223C572.456 43.5878 571.588 44.4565 570.522 45.0099C569.822 45.3735 569.064 45.5252 568.199 45.597C567.36 45.6667 566.323 45.6667 565.037 45.6666H558.963C557.677 45.6667 556.64 45.6667 555.801 45.597C554.936 45.5252 554.178 45.3735 553.478 45.0099C552.412 44.4565 551.544 43.5878 550.99 42.5223C550.626 41.8223 550.475 41.0637 550.403 40.1995C550.333 39.3602 550.333 38.3232 550.333 37.0374V30.9625C550.333 29.6768 550.333 28.6398 550.403 27.8005C550.475 26.9362 550.626 26.1776 550.99 25.4776C551.544 24.4122 552.412 23.5435 553.478 22.9901C554.178 22.6264 554.936 22.4748 555.801 22.403C556.64 22.3333 557.677 22.3333 558.963 22.3333ZM555.994 24.7283C555.276 24.7879 554.865 24.8989 554.553 25.0607C553.914 25.3928 553.393 25.914 553.061 26.5532C552.899 26.8647 552.788 27.2762 552.728 27.9936C552.668 28.725 552.667 29.6649 552.667 31.0133V36.9866C552.667 38.335 552.668 39.275 552.728 40.0064C552.788 40.7237 552.899 41.1353 553.061 41.4467C553.393 42.086 553.914 42.6072 554.553 42.9393C554.865 43.101 555.276 43.2121 555.994 43.2716C556.725 43.3324 557.665 43.3333 559.013 43.3333H564.987C566.335 43.3333 567.275 43.3324 568.006 43.2716C568.724 43.2121 569.135 43.101 569.447 42.9393C570.086 42.6072 570.607 42.086 570.939 41.4467C571.101 41.1353 571.212 40.7237 571.272 40.0064C571.332 39.275 571.333 38.335 571.333 36.9866V31.0133C571.333 29.6649 571.332 28.725 571.272 27.9936C571.212 27.2762 571.101 26.8647 570.939 26.5532C570.607 25.914 570.086 25.3928 569.447 25.0607C569.135 24.8989 568.724 24.7879 568.006 24.7283C567.275 24.6676 566.335 24.6666 564.987 24.6666H559.013C557.665 24.6666 556.725 24.6676 555.994 24.7283Z" fill="white"/>
<path fill-rule="evenodd" clip-rule="evenodd" d="M567.834 32.8333C568.143 32.8333 568.44 32.9562 568.658 33.175L573.567 38.0834L571.917 39.7332L567.833 35.6499L561.658 41.825C561.43 42.0533 561.117 42.1768 560.794 42.166C560.472 42.1553 560.168 42.0112 559.955 41.7682L556.702 38.0496L552.675 42.1584C552.224 42.6185 551.485 42.626 551.025 42.175C550.565 41.7241 550.558 40.9854 551.009 40.5252L555.917 35.5167C556.144 35.2847 556.458 35.1579 556.783 35.1671C557.108 35.1763 557.414 35.3205 557.628 35.5651L560.89 39.2932L567.009 33.175C567.227 32.9562 567.524 32.8333 567.834 32.8333Z" fill="white"/>
<path d="M558.5 28.75C558.5 29.7165 557.716 30.5 556.75 30.5C555.783 30.5 555 29.7165 555 28.75C555 27.7835 555.783 27 556.75 27C557.716 27 558.5 27.7835 558.5 28.75Z" fill="white"/>
<path d="M29.1682 70.415C27.9269 70.4735 27.0791 70.6716 26.3381 70.9628C25.5711 71.2617 24.921 71.6628 24.2742 72.312C23.6274 72.9611 23.2291 73.6117 22.9323 74.3798C22.6451 75.1225 22.4505 75.9709 22.3956 77.213C22.3408 78.455 22.3287 78.8543 22.3347 82.0225C22.3408 85.1907 22.3548 85.5879 22.415 86.8325C22.4743 88.0736 22.6717 88.9211 22.9629 89.6624C23.2622 90.4293 23.6629 91.0792 24.3123 91.7262C24.9616 92.3733 25.6117 92.7706 26.3817 93.0679C27.1237 93.3547 27.9724 93.5502 29.2142 93.6046C30.456 93.6589 30.8557 93.6715 34.023 93.6655C37.1903 93.6594 37.5891 93.6454 38.8334 93.5864C40.0778 93.5273 40.9209 93.3285 41.6624 93.0387C42.4294 92.7387 43.0797 92.3387 43.7262 91.6891C44.3728 91.0395 44.7709 90.3885 45.0675 89.6199C45.3549 88.8779 45.5502 88.0292 45.6041 86.7884C45.6585 85.5431 45.6713 85.1455 45.6653 81.9777C45.6592 78.8099 45.645 78.4128 45.5859 77.1686C45.5269 75.9245 45.3293 75.0796 45.0383 74.3378C44.7385 73.5708 44.3383 72.9215 43.6891 72.274C43.04 71.6264 42.3885 71.2286 41.6202 70.9327C40.8777 70.6455 40.0295 70.4497 38.7877 70.3961C37.5459 70.3424 37.1462 70.3286 33.9777 70.3347C30.8093 70.3408 30.4126 70.3543 29.1682 70.415ZM29.3045 91.5057C28.167 91.4562 27.5493 91.2672 27.1377 91.109C26.5926 90.899 26.2044 90.6452 25.7942 90.2389C25.384 89.8327 25.132 89.443 24.9192 88.8991C24.7593 88.4875 24.5668 87.8706 24.5136 86.7331C24.4558 85.5036 24.4436 85.1345 24.4369 82.0197C24.4301 78.9049 24.442 78.5362 24.4959 77.3063C24.5444 76.1697 24.7346 75.5514 24.8926 75.14C25.1026 74.5942 25.3555 74.2067 25.7627 73.7967C26.1698 73.3867 26.5583 73.1343 27.1027 72.9215C27.5139 72.7609 28.1308 72.5701 29.2678 72.5159C30.4982 72.4576 30.8669 72.4459 33.9812 72.4392C37.0955 72.4324 37.4652 72.4441 38.696 72.4982C39.8326 72.5477 40.4511 72.736 40.8621 72.8949C41.4074 73.1049 41.7954 73.3571 42.2054 73.765C42.6153 74.1728 42.868 74.5599 43.0808 75.1055C43.2416 75.5155 43.4325 76.1322 43.4861 77.2699C43.5447 78.5003 43.558 78.8692 43.5636 81.9833C43.5692 85.0974 43.5582 85.4672 43.5043 86.6967C43.4546 87.8342 43.2661 88.452 43.1077 88.8641C42.8977 89.409 42.6445 89.7975 42.2371 90.2072C41.8297 90.6169 41.4417 90.8694 40.8971 91.0822C40.4864 91.2425 39.8687 91.4338 38.7326 91.488C37.5023 91.5458 37.1336 91.558 34.0181 91.5647C30.9026 91.5715 30.5351 91.5589 29.3047 91.5057M38.8155 75.7647C38.8159 76.0416 38.8985 76.3121 39.0527 76.5421C39.207 76.7721 39.426 76.9512 39.682 77.0567C39.938 77.1622 40.2196 77.1895 40.4911 77.1349C40.7626 77.0804 41.0118 76.9466 41.2073 76.7505C41.4027 76.5543 41.5356 76.3046 41.5891 76.0329C41.6426 75.7612 41.6144 75.4797 41.5079 75.2241C41.4014 74.9684 41.2216 74.7501 40.991 74.5967C40.7605 74.4433 40.4896 74.3618 40.2127 74.3623C39.8415 74.3631 39.4857 74.5112 39.2237 74.7742C38.9617 75.0372 38.8148 75.3934 38.8155 75.7647ZM28.0097 82.0118C28.0162 85.3205 30.7033 87.9966 34.0113 87.9903C37.3193 87.984 39.9973 85.2971 39.991 81.9884C39.9847 78.6797 37.2969 76.0029 33.9885 76.0094C30.68 76.016 28.0034 78.7035 28.0097 82.0118ZM30.1111 82.0076C30.1096 81.2384 30.3362 80.486 30.7623 79.8456C31.1883 79.2053 31.7947 78.7056 32.5047 78.4098C33.2148 78.1141 33.9966 78.0355 34.7513 78.1841C35.506 78.3327 36.1996 78.7017 36.7446 79.2445C37.2896 79.7873 37.6613 80.4795 37.8129 81.2336C37.9644 81.9877 37.889 82.7698 37.596 83.481C37.3031 84.1922 36.8058 84.8006 36.1671 85.2292C35.5284 85.6578 34.777 85.8873 34.0078 85.8889C33.4971 85.8899 32.9912 85.7904 32.5189 85.5959C32.0466 85.4014 31.6173 85.1158 31.2555 84.7554C30.8936 84.395 30.6063 83.9668 30.41 83.4953C30.2136 83.0238 30.1121 82.5183 30.1111 82.0076Z" fill="white"/>
<g clip-path="url(#clip0_1111_152)">
<path d="M81.4614 70.4616C81.6606 69.9826 82.3393 69.9826 82.5386 70.4616L85.4119 77.3699C85.4959 77.5719 85.6858 77.7099 85.9039 77.7274L93.362 78.3253C93.8792 78.3668 94.0889 79.0122 93.6948 79.3498L88.0126 84.2173C87.8464 84.3596 87.7739 84.5828 87.8247 84.7956L89.5607 92.0734C89.6811 92.5782 89.132 92.9771 88.6892 92.7066L82.304 88.8066C82.1174 88.6926 81.8826 88.6926 81.6959 88.8066L75.3108 92.7066C74.8679 92.9771 74.3189 92.5782 74.4393 92.0734L76.1753 84.7956C76.2261 84.5828 76.1535 84.3596 75.9874 84.2173L70.3051 79.3498C69.911 79.0122 70.1208 78.3668 70.638 78.3253L78.0961 77.7274C78.3141 77.7099 78.5041 77.5719 78.5881 77.3699L81.4614 70.4616Z" fill="white"/>
</g>
<circle cx="130" cy="82" r="11.9583" stroke="white" stroke-width="1.75"/>
<path d="M130 75.5834L131.886 79.4044L136.103 80.0172L133.051 82.9915L133.772 87.1912L130 85.2084L126.228 87.1912L126.949 82.9915L123.897 80.0172L128.114 79.4044L130 75.5834Z" fill="white"/>
<path fill-rule="evenodd" clip-rule="evenodd" d="M174.228 69.4281C174.426 68.5064 175.741 68.5064 175.939 69.4281L176.836 73.6067C176.86 73.7189 176.948 73.8065 177.06 73.8306L181.239 74.7279C182.16 74.9258 182.16 76.241 181.239 76.4389L177.06 77.3362C176.948 77.3603 176.86 77.4479 176.836 77.5601L175.939 81.7387C175.741 82.6604 174.426 82.6604 174.228 81.7387L173.331 77.5601C173.307 77.4479 173.219 77.3603 173.107 77.3362L168.928 76.4389C168.006 76.241 168.006 74.9258 168.928 74.7279L173.107 73.8306C173.219 73.8065 173.307 73.7189 173.331 73.6067L174.228 69.4281ZM184.145 79.9281C184.342 79.0064 185.658 79.0064 185.856 79.9281L186.65 83.6265C186.674 83.7387 186.761 83.8263 186.874 83.8504L190.572 84.6446C191.494 84.8425 191.494 86.1576 190.572 86.3556L186.874 87.1497C186.761 87.1738 186.674 87.2615 186.65 87.3737L185.856 91.072C185.658 91.9937 184.342 91.9937 184.145 91.072L183.35 87.3737C183.326 87.2615 183.239 87.1738 183.126 87.1497L179.428 86.3556C178.506 86.1576 178.506 84.8425 179.428 84.6446L183.126 83.8504C183.239 83.8263 183.326 83.7387 183.35 83.6265L184.145 79.9281ZM169.561 84.5948C169.759 83.6731 171.074 83.6731 171.272 84.5948L171.963 87.8129C171.987 87.9251 172.075 88.0127 172.187 88.0368L175.405 88.7279C176.327 88.9258 176.327 90.241 175.405 90.4389L172.187 91.1299C172.075 91.154 171.987 91.2417 171.963 91.3539L171.272 94.572C171.074 95.4937 169.759 95.4937 169.561 94.572L168.87 91.3539C168.846 91.2417 168.758 91.154 168.646 91.1299L165.428 90.4389C164.506 90.241 164.506 88.9258 165.428 88.7279L168.646 88.0368C168.758 88.0127 168.846 87.9251 168.87 87.8129L169.561 84.5948Z" fill="white"/>
<path fill-rule="evenodd" clip-rule="evenodd" d="M224.287 75.1028C222.759 77.952 219.267 79.2339 216.961 77.5032C216.817 77.3952 216.678 77.2756 216.544 77.1438C216.311 76.9147 216.094 76.6491 215.898 76.3452C215.859 76.2849 215.821 76.2231 215.784 76.1598C215.331 75.3916 214.142 75.8708 214.36 76.7336L217.752 90.1667L234.248 90.1667L237.64 76.7336C237.858 75.8708 236.669 75.3916 236.216 76.1598C236.179 76.2231 236.141 76.2849 236.102 76.3452C235.906 76.6491 235.689 76.9147 235.456 77.1438C235.323 77.2756 235.183 77.3952 235.039 77.5032C232.733 79.2339 229.241 77.952 227.713 75.1028L226.881 73.3763C226.753 72.9319 226.384 72.6938 226 72.6667C225.616 72.6938 225.248 72.9319 225.119 73.3763L224.287 75.1028ZM226 76.7896C224.728 78.7721 222.702 80.151 220.518 80.5217C219.575 80.6817 218.612 80.6484 217.693 80.4046L219.569 87.8334L232.431 87.8334L234.307 80.4046C233.388 80.6484 232.425 80.6817 231.482 80.5217C229.298 80.151 227.272 78.7721 226 76.7896Z" fill="white"/>
<path fill-rule="evenodd" clip-rule="evenodd" d="M271.634 73.0792C274.751 69.9625 279.804 69.9625 282.921 73.0792C286.038 76.1959 286.038 81.2492 282.921 84.3659L281.984 85.3023C281.453 85.8334 280.592 85.8334 280.061 85.3023C279.53 84.7711 279.53 83.91 280.061 83.3789L280.997 82.4425C283.052 80.3881 283.052 77.0571 280.997 75.0026C278.943 72.9481 275.612 72.9481 273.557 75.0026L272.621 75.9389C272.09 76.4701 271.229 76.4701 270.697 75.9389C270.166 75.4078 270.166 74.5467 270.697 74.0155L271.634 73.0792ZM276.717 77.2262C277.248 76.6951 278.109 76.6951 278.641 77.2262C279.172 77.7573 279.172 78.6185 278.641 79.1496L271.15 86.6403C270.619 87.1714 269.758 87.1714 269.226 86.6403C268.695 86.1091 268.695 85.248 269.226 84.7169L276.717 77.2262ZM266.016 78.6977C266.547 78.1665 267.408 78.1665 267.939 78.6977C268.47 79.2288 268.47 80.0899 267.939 80.6211L267.003 81.5574C264.948 83.6119 264.948 86.9429 267.003 88.9973C269.057 91.0518 272.388 91.0518 274.443 88.9973L275.379 88.061C275.91 87.5299 276.771 87.5299 277.303 88.061C277.834 88.5921 277.834 89.4533 277.303 89.9844L276.366 90.9207C273.249 94.0375 268.196 94.0375 265.079 90.9207C261.962 87.804 261.962 82.7508 265.079 79.634L266.016 78.6977Z" fill="white"/>
<path d="M330.167 79.4743H327.677V77.7677C327.677 73.6265 325.791 71.5559 322.017 71.5559C320.312 71.5559 318.96 72.102 317.959 73.1942C316.982 74.2636 316.493 75.8336 316.493 77.9043V86.0616C316.493 87.9957 316.959 89.543 317.891 90.7035C318.823 91.8639 320.164 92.4442 321.915 92.4442H322.119C323.779 92.4442 325.063 92.0005 325.973 91.1131C326.905 90.2484 327.371 89.1107 327.371 87.6999V86.2323C327.371 85.4359 327.28 84.7874 327.098 84.2868C326.939 83.7635 326.666 83.3653 326.279 83.0922V84.2527C326.279 85.8455 325.904 87.0742 325.154 87.9388C324.427 88.7808 323.392 89.2017 322.051 89.2017C320.915 89.2017 319.96 88.8263 319.187 88.0754C318.414 87.3017 318.028 86.2778 318.028 85.0036C318.028 83.6838 318.403 82.6371 319.153 81.8635C319.926 81.0899 321.005 80.703 322.392 80.703H324.029V79.3037C324.029 77.7564 323.415 76.9827 322.188 76.9827C321.597 76.9827 321.153 77.1761 320.858 77.563C320.562 77.9498 320.414 78.439 320.414 79.0306V79.7815H318.232V79.0989C318.232 77.6881 318.607 76.6187 319.357 75.8905C320.108 75.1624 321.051 74.7983 322.188 74.7983C324.915 74.7983 326.279 76.2546 326.279 79.1671V80.942C328.644 81.5563 329.826 83.4563 329.826 86.6419V87.5293C329.826 89.8957 329.098 91.7047 327.643 92.9561C326.189 94.2076 324.324 94.8334 322.051 94.8334H321.915C320.369 94.8334 318.982 94.492 317.755 93.8094C316.55 93.1495 315.595 92.1711 314.89 90.8741C314.186 89.5771 313.833 88.0412 313.833 86.2664V77.7677C313.833 75.9474 314.186 74.3888 314.89 73.0918C315.618 71.7948 316.595 70.8164 317.823 70.1565C319.05 69.4966 320.449 69.1667 322.017 69.1667C324.586 69.1667 326.586 69.9062 328.018 71.3852C329.451 72.8642 330.167 74.9917 330.167 77.7677V79.4743ZM321.983 87.0173C322.71 87.0173 323.233 86.7898 323.552 86.3347C323.87 85.8568 324.029 85.1401 324.029 84.1844V82.6144H322.426C321.722 82.6144 321.176 82.8078 320.79 83.1946C320.403 83.5814 320.21 84.1503 320.21 84.9012C320.21 85.5383 320.38 86.0503 320.721 86.4371C321.062 86.8239 321.483 87.0173 321.983 87.0173Z" fill="white"/>
<path d="M365.917 80.8334C366.722 80.8334 367.375 80.1804 367.375 79.375C367.375 78.5696 366.722 77.9167 365.917 77.9167C365.111 77.9167 364.458 78.5696 364.458 79.375C364.458 80.1804 365.111 80.8334 365.917 80.8334Z" fill="white"/>
<path d="M374.083 80.8334C374.889 80.8334 375.542 80.1804 375.542 79.375C375.542 78.5696 374.889 77.9167 374.083 77.9167C373.278 77.9167 372.625 78.5696 372.625 79.375C372.625 80.1804 373.278 80.8334 374.083 80.8334Z" fill="white"/>
<path fill-rule="evenodd" clip-rule="evenodd" d="M358.917 76.75C358.917 73.5284 361.528 70.9167 364.75 70.9167H375.25C378.472 70.9167 381.083 73.5284 381.083 76.75V84.3334H381.081C381.058 84.597 380.946 84.8542 380.744 85.0559L372.935 92.8647C372.701 93.0985 371.8 93.0894 371.323 93.0845C371.263 93.0839 371.211 93.0834 371.167 93.0834H364.75C361.528 93.0834 358.917 90.4717 358.917 87.25V76.75ZM364.75 73.25H375.25C377.183 73.25 378.75 74.817 378.75 76.75V82H377C374.794 82 372.826 83.0208 371.543 84.6157C371.473 84.6284 371.403 84.6478 371.334 84.674C370.927 84.8292 370.476 84.9167 369.997 84.9167C368.909 84.9167 367.967 84.4658 367.365 83.8002C366.933 83.3222 366.195 83.285 365.717 83.7172C365.24 84.1493 365.202 84.887 365.634 85.365C366.689 86.5315 368.265 87.25 369.997 87.25C370.072 87.25 370.147 87.2487 370.221 87.246C370.077 87.8065 370 88.3943 370 89V90.75H364.75C362.817 90.75 361.25 89.183 361.25 87.25V76.75C361.25 74.817 362.817 73.25 364.75 73.25ZM378.167 84.3334H377C374.423 84.3334 372.333 86.4227 372.333 89V90.1667L378.167 84.3334Z" fill="white"/>
<path d="M423.276 91.3334C422.24 91.3334 421.401 91.0013 420.758 90.3371C420.132 89.6729 419.82 88.8078 419.82 87.7416C419.82 86.7104 420.106 85.8976 420.677 85.3034C421.249 84.6916 422.088 84.2285 423.195 83.9139L425.124 83.3633C425.589 83.2409 425.919 83.0749 426.116 82.8652C426.312 82.6554 426.41 82.3408 426.41 81.9213C426.41 81.3446 426.223 80.8814 425.848 80.5318C425.473 80.1823 424.946 80.0075 424.267 80.0075C423.642 80.0075 423.133 80.191 422.74 80.558C422.365 80.9076 422.177 81.4057 422.177 82.0524V82.5506H420.088V82.0524C420.088 80.8639 420.463 79.9201 421.213 79.221C421.981 78.5218 422.999 78.1723 424.267 78.1723C425.624 78.1723 426.669 78.5044 427.402 79.1685C428.134 79.8327 428.5 80.7853 428.5 82.0262V91.0187H426.464V89.1049C426.267 89.804 425.883 90.3546 425.312 90.7566C424.74 91.1411 424.062 91.3334 423.276 91.3334ZM423.758 89.4981C424.687 89.4981 425.357 89.1748 425.767 88.5281C426.196 87.8814 426.41 87.0687 426.41 86.0899V84.5169C426.267 84.6742 426.089 84.8052 425.874 84.9101C425.66 84.9975 425.365 85.0936 424.99 85.1985L423.785 85.5393C422.535 85.8889 421.91 86.5968 421.91 87.6629C421.91 88.2222 422.07 88.6679 422.392 89C422.731 89.3321 423.187 89.4981 423.758 89.4981Z" fill="white"/>
<path d="M419.073 91.0188H416.85L415.966 87.06H410.634L409.75 91.0188H407.5L411.84 72.6667H414.733L419.073 91.0188ZM413.287 75.1311L411.09 85.015H415.51L413.287 75.1311Z" fill="white"/>
<path fill-rule="evenodd" clip-rule="evenodd" d="M464.367 78.2083C464.367 75.6954 466.404 73.6583 468.917 73.6583C471.429 73.6583 473.467 75.6954 473.467 78.2083C473.467 80.7212 471.429 82.7583 468.917 82.7583C466.404 82.7583 464.367 80.7212 464.367 78.2083ZM468.917 75.7583C467.563 75.7583 466.467 76.8552 466.467 78.2083C466.467 79.5614 467.563 80.6583 468.917 80.6583C470.27 80.6583 471.367 79.5614 471.367 78.2083C471.367 76.8552 470.27 75.7583 468.917 75.7583ZM460.737 79.07C461.147 78.66 461.811 78.66 462.222 79.07C462.632 79.4801 462.632 80.1449 462.222 80.555L457.847 84.93C457.436 85.34 456.772 85.34 456.362 84.93L454.174 82.7425C453.764 82.3324 453.764 81.6676 454.174 81.2575C454.584 80.8475 455.249 80.8475 455.659 81.2575L457.104 82.7026L460.737 79.07ZM461.158 89.4773C461.158 86.2175 463.801 83.575 467.061 83.575H470.773C474.032 83.575 476.675 86.2175 476.675 89.4773V89.7954C476.675 90.4193 476.169 90.925 475.545 90.925C474.922 90.925 474.416 90.4193 474.416 89.7954V89.4773C474.416 87.4652 472.785 85.8341 470.773 85.8341H467.061C465.048 85.8341 463.417 87.4652 463.417 89.4773V89.7954C463.417 90.4193 462.912 90.925 462.288 90.925C461.664 90.925 461.158 90.4193 461.158 89.7954V89.4773Z" fill="white"/>
<path fill-rule="evenodd" clip-rule="evenodd" d="M509.009 73.1333L523.333 70.9167L523.333 86.9873C523.333 89.1297 521.607 90.8664 519.477 90.8664C517.347 90.8664 515.62 89.1297 515.62 86.9873C515.62 84.8449 517.347 83.1082 519.477 83.1082C520.068 83.1082 520.629 83.2421 521.13 83.4815V77.9077L511.213 79.4423V89.2043C511.213 91.3466 509.486 93.0834 507.356 93.0834C505.227 93.0834 503.5 91.3467 503.5 89.2043C503.5 87.0619 505.227 85.3251 507.356 85.3251C507.948 85.3251 508.508 85.4591 509.009 85.6984L509.009 73.1333ZM511.343 77.0611V75.1334L521 73.6389V75.5666L511.343 77.0611ZM507.356 90.7501C508.185 90.7501 508.88 90.0709 508.88 89.2043C508.88 88.3376 508.185 87.6585 507.356 87.6585C506.528 87.6585 505.833 88.3376 505.833 89.2043C505.833 90.0709 506.528 90.7501 507.356 90.7501ZM519.477 88.5331C520.305 88.5331 521 87.8539 521 86.9873C521 86.1207 520.305 85.4415 519.477 85.4415C518.648 85.4415 517.954 86.1207 517.954 86.9873C517.954 87.8539 518.648 88.5331 519.477 88.5331Z" fill="white"/>
<path fill-rule="evenodd" clip-rule="evenodd" d="M566.375 71.5H552.667C552.022 71.5 551.5 72.0224 551.5 72.6667V91.3334C551.5 91.9777 552.022 92.5 552.667 92.5H571.333C571.978 92.5 572.5 91.9777 572.5 91.3334V77.625H566.375V71.5ZM553.833 90.1667V86.375H557.625V90.1667H553.833ZM570.167 79.9584V84.0417H566.375V79.9584H570.167ZM570.167 86.375H566.375V90.1667H570.167V86.375ZM564.042 79.9584V84.0417H559.958V79.9584H564.042ZM564.042 86.375H559.958V90.1667H564.042V86.375ZM557.625 79.9584V84.0417H553.833V79.9584H557.625ZM557.625 77.625H553.833V73.8334H557.625V77.625ZM564.042 77.625H559.958V73.8334H564.042V77.625Z" fill="white"/>
<path d="M570.458 75.2917C570.458 75.7749 570.85 76.1667 571.333 76.1667C571.817 76.1667 572.208 75.7749 572.208 75.2917V73.5417H573.958C574.442 73.5417 574.833 73.1499 574.833 72.6667C574.833 72.1834 574.442 71.7917 573.958 71.7917H572.208V70.0417C572.208 69.5584 571.817 69.1667 571.333 69.1667C570.85 69.1667 570.458 69.5584 570.458 70.0417V71.7917H568.708C568.225 71.7917 567.833 72.1834 567.833 72.6667C567.833 73.1499 568.225 73.5417 568.708 73.5417H570.458V75.2917Z" fill="white"/>
<path d="M29.958 137C29.9307 137.191 29.9166 137.385 29.9166 137.583C29.9166 139.839 31.7448 141.667 34 141.667C36.2551 141.667 38.0833 139.839 38.0833 137.583C38.0833 137.385 38.0692 137.191 38.042 137H35.6504C35.7149 137.182 35.75 137.379 35.75 137.583C35.75 138.55 34.9665 139.333 34 139.333C33.0335 139.333 32.25 138.55 32.25 137.583C32.25 137.379 32.2851 137.182 32.3496 137H29.958Z" fill="black"/>
<path d="M34 138.167H39.8356C42.0907 138.167 43.9189 136.338 43.9189 134.083C43.9189 132.428 43.0057 131.517 41.9603 130.475L41.8471 130.362C41.839 130.347 41.8137 130.297 41.7825 130.193C41.7304 130.02 41.6854 129.773 41.6527 129.446C41.5868 128.787 41.5856 127.976 41.5856 127.083C41.5856 125.083 40.9181 123.599 40.0772 122.758C39.0769 121.758 38.1637 121.383 37.5043 121.185C37.202 121.094 37.043 120.891 36.8188 120.667C36.0717 119.92 35.0586 119.5 34.0022 119.5L34 119.5V121.835C34.0071 121.834 34.0077 121.833 34.0023 121.833C34.4399 121.833 34.8595 122.007 35.1689 122.317C35.3013 122.449 35.3736 122.606 35.4924 122.75C35.6998 123.001 35.9493 123.128 36.0985 123.191C36.2494 123.256 36.4055 123.3 36.5067 123.328C36.5453 123.339 36.5804 123.348 36.6138 123.357C36.688 123.378 36.7543 123.396 36.8337 123.42C37.216 123.534 37.7611 123.742 38.4273 124.408C38.7531 124.734 39.2523 125.583 39.2523 127.083V127.121C39.2522 127.968 39.2522 128.891 39.331 129.679C39.3712 130.081 39.4356 130.491 39.5476 130.864C39.6553 131.223 39.8368 131.651 40.1773 131.992C41.4109 133.225 41.5856 133.476 41.5856 134.083C41.5856 135.05 40.8021 135.833 39.8356 135.833H34V138.167Z" fill="black"/>
<path d="M34.0023 138.167H28.1667C25.9115 138.167 24.0833 136.338 24.0833 134.083C24.0833 132.428 24.9965 131.517 26.0419 130.475L26.1551 130.362C26.1632 130.347 26.1886 130.297 26.2198 130.193C26.2718 130.02 26.3168 129.773 26.3495 129.446C26.4155 128.787 26.4166 127.976 26.4166 127.083C26.4166 125.083 27.0842 123.599 27.925 122.758C28.9253 121.758 29.8385 121.383 30.498 121.185C30.8003 121.094 30.9592 120.891 31.1835 120.667C31.9305 119.92 32.9436 119.5 34 119.5L34.0022 119.5L34.0023 121.835C33.9951 121.834 33.9946 121.833 33.9999 121.833C33.5624 121.833 33.1428 122.007 32.8334 122.317C32.7009 122.449 32.6287 122.606 32.5099 122.75C32.3024 123.001 32.053 123.128 31.9037 123.191C31.7528 123.256 31.5968 123.3 31.4955 123.328C31.4569 123.339 31.4218 123.348 31.3884 123.357C31.3143 123.378 31.2479 123.396 31.1685 123.42C30.7863 123.534 30.2411 123.742 29.5749 124.408C29.2491 124.734 28.75 125.583 28.75 127.083V127.121C28.75 127.968 28.75 128.891 28.6713 129.679C28.6311 130.081 28.5667 130.491 28.4547 130.864C28.3469 131.223 28.1654 131.651 27.8249 131.992C26.5914 133.225 26.4166 133.476 26.4166 134.083C26.4166 135.05 27.2002 135.833 28.1667 135.833H34.0023V138.167Z" fill="black"/>
<path d="M77.9581 137C77.9308 137.191 77.9167 137.385 77.9167 137.583C77.9167 139.839 79.7449 141.667 82 141.667C84.2552 141.667 86.0834 139.839 86.0834 137.583C86.0834 137.385 86.0693 137.191 86.042 137H83.6505C83.715 137.182 83.75 137.379 83.75 137.583C83.75 138.55 82.9665 139.333 82 139.333C81.0335 139.333 80.25 138.55 80.25 137.583C80.25 137.379 80.2851 137.182 80.3496 137H77.9581Z" fill="black"/>
<path d="M82 138.167H87.8356C90.0908 138.167 91.919 136.338 91.919 134.083C91.919 132.428 91.0058 131.517 89.9604 130.475L89.8472 130.362C89.8391 130.347 89.8137 130.297 89.7825 130.193C89.7305 130.02 89.6855 129.773 89.6528 129.446C89.5868 128.787 89.5857 127.976 89.5857 127.083C89.5857 125.083 88.9181 123.599 88.0773 122.758C87.077 121.758 86.1638 121.383 85.5043 121.185C85.202 121.094 85.0431 120.891 84.8188 120.667C84.0718 119.92 83.0587 119.5 82.0023 119.5L82 119.5V121.835C82.0072 121.834 82.0077 121.833 82.0024 121.833C82.4399 121.833 82.8595 122.007 83.1689 122.317C83.3014 122.449 83.3736 122.606 83.4924 122.75C83.6999 123.001 83.9493 123.128 84.0986 123.191C84.2495 123.256 84.4055 123.3 84.5068 123.328C84.5454 123.339 84.5805 123.348 84.6139 123.357C84.688 123.378 84.7544 123.396 84.8338 123.42C85.216 123.534 85.7612 123.742 86.4274 124.408C86.7532 124.734 87.2523 125.583 87.2523 127.083V127.121C87.2523 127.968 87.2523 128.891 87.331 129.679C87.3712 130.081 87.4356 130.491 87.5476 130.864C87.6554 131.223 87.8369 131.651 88.1774 131.992C89.4109 133.225 89.5857 133.476 89.5857 134.083C89.5857 135.05 88.8021 135.833 87.8356 135.833H82V138.167Z" fill="black"/>
<path d="M82.0023 138.167H76.1667C73.9116 138.167 72.0834 136.338 72.0834 134.083C72.0834 132.428 72.9966 131.517 74.042 130.475L74.1552 130.362C74.1633 130.347 74.1886 130.297 74.2198 130.193C74.2719 130.02 74.3169 129.773 74.3496 129.446C74.4155 128.787 74.4167 127.976 74.4167 127.083C74.4167 125.083 75.0842 123.599 75.9251 122.758C76.9254 121.758 77.8386 121.383 78.498 121.185C78.8003 121.094 78.9593 120.891 79.1835 120.667C79.9306 119.92 80.9436 119.5 82 119.5L82.0023 119.5L82.0023 121.835C81.9952 121.834 81.9946 121.833 82 121.833C81.5624 121.833 81.1428 122.007 80.8334 122.317C80.701 122.449 80.6287 122.606 80.5099 122.75C80.3025 123.001 80.053 123.128 79.9038 123.191C79.7529 123.256 79.5968 123.3 79.4956 123.328C79.457 123.339 79.4219 123.348 79.3885 123.357C79.3143 123.378 79.248 123.396 79.1686 123.42C78.7863 123.534 78.2412 123.742 77.575 124.408C77.2492 124.734 76.75 125.583 76.75 127.083V127.121C76.7501 127.968 76.7501 128.891 76.6713 129.679C76.6311 130.081 76.5667 130.491 76.4547 130.864C76.347 131.223 76.1655 131.651 75.825 131.992C74.5914 133.225 74.4167 133.476 74.4167 134.083C74.4167 135.05 75.2002 135.833 76.1667 135.833H82.0023V138.167Z" fill="black"/>
<path fill-rule="evenodd" clip-rule="evenodd" d="M78.3409 129.258C78.751 128.847 79.4158 128.847 79.8259 129.258L81.1251 130.557L84.1743 127.508C84.5843 127.097 85.2491 127.097 85.6592 127.508C86.0693 127.918 86.0693 128.582 85.6592 128.992L81.8675 132.784C81.4575 133.194 80.7927 133.194 80.3826 132.784L78.3409 130.742C77.9309 130.332 77.9309 129.668 78.3409 129.258Z" fill="black"/>
<path fill-rule="evenodd" clip-rule="evenodd" d="M123.583 130.583C123.583 134.127 126.456 137 130 137C133.544 137 136.417 134.127 136.417 130.583C136.417 127.04 133.544 124.167 130 124.167C126.456 124.167 123.583 127.04 123.583 130.583ZM125.917 130.583C125.917 128.328 127.745 126.5 130 126.5C132.255 126.5 134.083 128.328 134.083 130.583C134.083 132.839 132.255 134.667 130 134.667C127.745 134.667 125.917 132.839 125.917 130.583Z" fill="black"/>
<path fill-rule="evenodd" clip-rule="evenodd" d="M127.587 118.333C126.878 118.333 126.324 118.624 125.912 118.952C125.543 119.246 125.234 119.617 125.009 119.885L124.981 119.919C124.72 120.231 124.553 120.425 124.388 120.556C124.25 120.666 124.193 120.667 124.167 120.667L124.099 120.667C123.622 120.667 123.298 120.667 123.012 120.695C120.242 120.968 118.051 123.159 117.778 125.929C117.75 126.215 117.75 126.539 117.75 127.016L117.75 133.038C117.75 134.323 117.75 135.36 117.82 136.2C117.891 137.064 118.043 137.822 118.407 138.522C118.96 139.588 119.829 140.457 120.894 141.01C121.594 141.374 122.353 141.525 123.217 141.597C124.057 141.667 125.093 141.667 126.379 141.667H133.621C134.906 141.667 135.944 141.667 136.783 141.597C137.647 141.525 138.406 141.374 139.106 141.01C140.171 140.457 141.04 139.588 141.593 138.522C141.957 137.822 142.109 137.064 142.18 136.2C142.25 135.36 142.25 134.323 142.25 133.038L142.25 127.016C142.25 126.539 142.25 126.215 142.222 125.929C141.949 123.159 139.758 120.968 136.988 120.695C136.702 120.667 136.378 120.667 135.901 120.667L135.833 120.667L135.831 120.667L135.83 120.666C135.821 120.663 135.79 120.647 135.733 120.596C135.598 120.477 135.46 120.295 135.229 119.979L135.203 119.943C135.009 119.677 134.732 119.296 134.389 118.992C134 118.647 133.456 118.333 132.74 118.333H127.587ZM124.167 123C124.875 123 125.43 122.709 125.842 122.382C126.211 122.088 126.52 121.717 126.744 121.448L126.772 121.415C127.033 121.102 127.201 120.909 127.366 120.777C127.503 120.668 127.56 120.667 127.587 120.667H132.74L132.742 120.667L132.744 120.667C132.752 120.671 132.784 120.687 132.84 120.737C132.975 120.857 133.114 121.038 133.344 121.354L133.37 121.39C133.565 121.657 133.842 122.038 134.184 122.342C134.573 122.687 135.118 123 135.833 123C136.403 123 136.603 123.002 136.76 123.017C138.421 123.181 139.736 124.496 139.9 126.157C139.915 126.314 139.917 126.514 139.917 127.084V132.987C139.917 134.335 139.916 135.275 139.855 136.006C139.795 136.724 139.684 137.135 139.523 137.447C139.191 138.086 138.669 138.607 138.03 138.939C137.719 139.101 137.307 139.212 136.59 139.272C135.858 139.332 134.918 139.333 133.57 139.333H126.43C125.082 139.333 124.142 139.332 123.41 139.272C122.693 139.212 122.281 139.101 121.97 138.939C121.331 138.607 120.809 138.086 120.477 137.447C120.316 137.135 120.205 136.724 120.145 136.006C120.084 135.275 120.083 134.335 120.083 132.987V127.084C120.083 126.514 120.085 126.314 120.1 126.157C120.264 124.496 121.579 123.181 123.24 123.017C123.397 123.002 123.597 123 124.167 123Z" fill="black"/>
<path fill-rule="evenodd" clip-rule="evenodd" d="M173.917 118.333C171.984 118.333 170.417 119.9 170.417 121.833V138.167C170.417 140.1 171.984 141.667 173.917 141.667H182.083C184.016 141.667 185.583 140.1 185.583 138.167V121.833C185.583 119.9 184.016 118.333 182.083 118.333H173.917ZM172.75 121.833C172.75 121.189 173.272 120.667 173.917 120.667H182.083C182.728 120.667 183.25 121.189 183.25 121.833V138.167C183.25 138.811 182.728 139.333 182.083 139.333H173.917C173.272 139.333 172.75 138.811 172.75 138.167V121.833Z" fill="black"/>
<path fill-rule="evenodd" clip-rule="evenodd" d="M190.833 124.371C190.833 122.764 189.672 121.393 188.086 121.129C187.387 121.012 186.75 121.551 186.75 122.261V122.45C186.75 122.904 187.04 123.307 187.471 123.451L187.699 123.527C188.178 123.686 188.5 124.134 188.5 124.638V135.363C188.5 135.867 188.178 136.314 187.699 136.473L187.471 136.55C187.04 136.693 186.75 137.096 186.75 137.55V137.74C186.75 138.449 187.387 138.988 188.086 138.872C189.672 138.608 190.833 137.236 190.833 135.629V124.371Z" fill="black"/>
<path fill-rule="evenodd" clip-rule="evenodd" d="M164.875 124.371C164.875 122.764 166.037 121.393 167.622 121.129C168.322 121.012 168.958 121.551 168.958 122.261V122.45C168.958 122.904 168.668 123.307 168.237 123.451L168.009 123.527C167.531 123.686 167.208 124.134 167.208 124.638V135.363C167.208 135.867 167.531 136.314 168.009 136.473L168.237 136.55C168.668 136.693 168.958 137.096 168.958 137.55V137.74C168.958 138.449 168.322 138.988 167.622 138.872C166.037 138.608 164.875 137.236 164.875 135.629V124.371Z" fill="black"/>
<path d="M225.972 135.25C225.848 135.25 225.724 135.222 225.609 135.137C224.197 134.118 222.736 133.006 221.658 131.469C221.276 130.931 220.77 130.101 220.751 129.045C220.722 127.782 221.448 126.622 222.555 126.15C223.662 125.679 224.989 125.952 225.915 126.858L226 126.933C226.058 126.877 226.105 126.829 226.163 126.773C227.213 125.83 228.654 125.651 229.771 126.311C230.926 126.999 231.489 128.414 231.155 129.753C230.859 130.941 230.114 131.846 229.437 132.581C228.501 133.59 227.394 134.42 226.44 135.099C226.335 135.175 226.163 135.241 225.981 135.241L225.972 135.25Z" fill="black"/>
<path fill-rule="evenodd" clip-rule="evenodd" d="M224.951 118.043C224.951 117.479 225.408 117.022 225.972 117.022C233.153 117.022 238.978 122.834 238.978 130.007C238.978 134.441 236.751 138.354 233.359 140.695C232.895 141.015 232.259 140.899 231.939 140.435C231.619 139.971 231.735 139.335 232.199 139.015C235.064 137.038 236.936 133.74 236.936 130.007C236.936 123.965 232.029 119.064 225.972 119.064C225.408 119.064 224.951 118.607 224.951 118.043ZM218.164 119.619C218.615 119.281 219.255 119.373 219.593 119.824C219.931 120.275 219.839 120.915 219.388 121.253C218.919 121.605 218.479 121.993 218.073 122.414C217.681 122.819 217.035 122.83 216.629 122.439C216.224 122.047 216.213 121.401 216.604 120.995C217.086 120.496 217.608 120.036 218.164 119.619ZM214.268 124.332C214.515 123.825 215.126 123.615 215.633 123.862C216.14 124.109 216.35 124.72 216.103 125.227C215.551 126.359 215.189 127.601 215.059 128.912C215.003 129.473 214.503 129.882 213.942 129.827C213.381 129.771 212.971 129.271 213.027 128.71C213.182 127.154 213.612 125.678 214.268 124.332ZM214.16 132.148C214.701 131.99 215.268 132.301 215.426 132.842C215.887 134.423 216.713 135.877 217.803 137.106C218.177 137.528 218.139 138.173 217.717 138.547C217.295 138.921 216.65 138.883 216.276 138.461C214.996 137.018 214.016 135.3 213.466 133.414C213.308 132.873 213.618 132.306 214.16 132.148ZM219.676 140.09C219.94 139.592 220.558 139.402 221.056 139.665C223.18 140.789 225.656 141.238 228.163 140.73C228.716 140.618 229.254 140.976 229.366 141.528C229.478 142.081 229.121 142.62 228.568 142.731C225.561 143.34 222.608 142.796 220.101 141.47C219.603 141.206 219.413 140.589 219.676 140.09Z" fill="black"/>
<path d="M279.833 132.333C279.833 131.968 279.401 131.796 279.075 131.96C278.601 132.199 278.066 132.333 277.5 132.333C275.567 132.333 274 130.766 274 128.833C274 128.267 274.135 127.732 274.373 127.259C274.538 126.933 274.365 126.5 274 126.5C270.778 126.5 268.167 129.112 268.167 132.333C268.167 135.555 270.778 138.167 274 138.167C277.222 138.167 279.833 135.555 279.833 132.333Z" fill="black"/>
<path fill-rule="evenodd" clip-rule="evenodd" d="M262.687 129.95C264.762 123.807 271.009 120.253 277.113 121.976C281.078 123.095 284.037 126.177 285.313 129.95C285.508 130.526 285.228 131.176 284.655 131.391C284.075 131.609 283.453 131.284 283.256 130.701C282.204 127.591 279.775 125.074 276.541 124.162C271.573 122.76 266.452 125.645 264.744 130.701C264.547 131.283 263.926 131.609 263.345 131.391C262.773 131.176 262.492 130.527 262.687 129.95Z" fill="black"/>
<path fill-rule="evenodd" clip-rule="evenodd" d="M318.5 123C316.084 123 314.125 124.959 314.125 127.375C314.125 129.791 316.084 131.75 318.5 131.75C320.916 131.75 322.875 129.791 322.875 127.375C322.875 124.959 320.916 123 318.5 123ZM315.875 127.375C315.875 125.925 317.05 124.75 318.5 124.75C319.95 124.75 321.125 125.925 321.125 127.375C321.125 128.825 319.95 130 318.5 130C317.05 130 315.875 128.825 315.875 127.375Z" fill="black"/>
<path d="M310.917 138.352C310.917 135.189 313.481 132.625 316.644 132.625H320.356C323.519 132.625 326.083 135.189 326.083 138.352V138.67C326.083 139.198 325.656 139.625 325.129 139.625C324.602 139.625 324.174 139.198 324.174 138.67V138.352C324.174 136.244 322.465 134.534 320.356 134.534H316.644C314.535 134.534 312.826 136.244 312.826 138.352V138.67C312.826 139.198 312.398 139.625 311.871 139.625C311.344 139.625 310.917 139.198 310.917 138.67V138.352Z" fill="black"/>
<path d="M323.417 122.861C323.898 122.234 324.652 121.833 325.5 121.833C326.95 121.833 328.125 123.009 328.125 124.458C328.125 125.908 326.95 127.083 325.5 127.083C325.395 127.083 325.292 127.077 325.191 127.065C324.711 127.009 324.276 127.353 324.22 127.833C324.164 128.313 324.508 128.748 324.988 128.804C325.156 128.823 325.327 128.833 325.5 128.833C327.916 128.833 329.875 126.875 329.875 124.458C329.875 122.042 327.916 120.083 325.5 120.083C324.085 120.083 322.827 120.756 322.029 121.795C321.735 122.178 321.807 122.727 322.19 123.022C322.573 123.316 323.122 123.244 323.417 122.861Z" fill="black"/>
<path d="M324.917 130.292L327.356 130.292C330.519 130.292 333.083 132.856 333.083 136.019V136.337C333.083 136.864 332.656 137.292 332.129 137.292C331.602 137.292 331.174 136.864 331.174 136.337V136.019C331.174 133.91 329.465 132.201 327.356 132.201H324.917C323.167 132.201 323.167 130.292 324.917 130.292Z" fill="black"/>
<path d="M359.5 140.5C359.5 139.856 360.022 139.333 360.667 139.333H379.333C379.978 139.333 380.5 139.856 380.5 140.5C380.5 141.144 379.978 141.667 379.333 141.667H360.667C360.022 141.667 359.5 141.144 359.5 140.5Z" fill="black"/>
<path d="M374.908 129.658C375.364 129.203 375.364 128.464 374.908 128.008C374.453 127.553 373.714 127.553 373.258 128.008L371.167 130.1V131.167C371.167 131.811 370.644 132.333 370 132.333C369.356 132.333 368.833 131.811 368.833 131.167V130.1L366.742 128.008C366.286 127.553 365.547 127.553 365.092 128.008C364.636 128.464 364.636 129.203 365.092 129.658L369.175 133.742C369.631 134.197 370.369 134.197 370.825 133.742L374.908 129.658Z" fill="black"/>
<path fill-rule="evenodd" clip-rule="evenodd" d="M370 118.333C369.356 118.333 368.833 118.856 368.833 119.5V130.1L370 131.267L371.167 130.1V119.5C371.167 118.856 370.644 118.333 370 118.333Z" fill="black"/>
<path d="M368.833 131.167C368.833 131.811 369.356 132.333 370 132.333C370.644 132.333 371.167 131.811 371.167 131.167V130.1L370 131.267L368.833 130.1V131.167Z" fill="black"/>
<path d="M410.708 131.458C410.708 131.942 411.1 132.333 411.583 132.333C412.067 132.333 412.458 131.942 412.458 131.458V129.708H414.208C414.692 129.708 415.083 129.317 415.083 128.833C415.083 128.35 414.692 127.958 414.208 127.958H412.458V126.208C412.458 125.725 412.067 125.333 411.583 125.333C411.1 125.333 410.708 125.725 410.708 126.208V127.958H408.958C408.475 127.958 408.083 128.35 408.083 128.833C408.083 129.317 408.475 129.708 408.958 129.708H410.708V131.458Z" fill="black"/>
<path fill-rule="evenodd" clip-rule="evenodd" d="M416.833 125.917C416.833 128.172 418.661 130 420.917 130C423.172 130 425 128.172 425 125.917C425 123.662 423.172 121.833 420.917 121.833C418.661 121.833 416.833 123.662 416.833 125.917ZM418.583 125.917C418.583 124.628 419.628 123.583 420.917 123.583C422.205 123.583 423.25 124.628 423.25 125.917C423.25 127.205 422.205 128.25 420.917 128.25C419.628 128.25 418.583 127.205 418.583 125.917Z" fill="black"/>
<path d="M414.5 136.417C414.5 133.517 416.85 131.167 419.75 131.167H422.083C424.983 131.167 427.333 133.517 427.333 136.417V136.708C427.333 137.192 426.941 137.583 426.458 137.583C425.975 137.583 425.583 137.192 425.583 136.708V136.417C425.583 134.484 424.016 132.917 422.083 132.917H419.75C417.817 132.917 416.25 134.484 416.25 136.417V136.708C416.25 137.192 415.858 137.583 415.375 137.583C414.892 137.583 414.5 137.192 414.5 136.708V136.417Z" fill="black"/>
<path d="M477.667 130.071C477.667 123.589 472.443 118.333 466 118.333C459.557 118.333 454.333 123.589 454.333 130.071C454.333 135.93 458.6 140.786 464.177 141.667V133.464H461.215V130.071H464.177V127.485C464.177 124.543 465.919 122.918 468.584 122.918C469.86 122.918 471.195 123.148 471.195 123.148V126.036H469.724C468.275 126.036 467.823 126.941 467.823 127.869V130.071H471.059L470.541 133.464H467.823V141.667C473.4 140.786 477.667 135.93 477.667 130.071Z" fill="black"/>
<path d="M514.168 141.083C510.795 141.061 508.202 139.971 506.459 137.843C504.911 135.947 504.11 133.312 504.083 130.009V129.993C504.11 126.688 504.911 124.055 506.462 122.16C508.202 120.029 510.798 118.939 514.168 118.917H514.182C516.768 118.934 518.932 119.586 520.611 120.854C522.192 122.047 523.304 123.745 523.917 125.904L521.995 126.429C520.955 122.771 518.324 120.903 514.173 120.874C511.433 120.894 509.36 121.738 508.012 123.383C506.753 124.924 506.102 127.149 506.077 130C506.102 132.851 506.753 135.076 508.015 136.617C509.362 138.264 511.435 139.108 514.175 139.126C516.646 139.108 518.281 138.543 519.639 137.237C521.19 135.748 521.163 133.919 520.666 132.806C520.374 132.15 519.843 131.605 519.126 131.19C518.945 132.438 518.541 133.449 517.917 134.212C517.082 135.229 515.9 135.785 514.404 135.865C513.271 135.925 512.179 135.664 511.333 135.125C510.332 134.489 509.746 133.518 509.683 132.387C509.622 131.288 510.067 130.277 510.936 129.541C511.765 128.838 512.932 128.426 514.311 128.349C515.326 128.293 516.278 128.337 517.155 128.479C517.037 127.794 516.802 127.249 516.449 126.857C515.966 126.316 515.217 126.041 514.227 126.034C514.218 126.034 514.209 126.034 514.2 126.034C513.404 126.034 512.324 126.249 511.636 127.254L509.982 126.165C510.904 124.822 512.401 124.081 514.2 124.081C514.214 124.081 514.227 124.081 514.241 124.081C517.25 124.099 519.043 125.906 519.221 129.058C519.323 129.1 519.425 129.144 519.524 129.189C520.928 129.836 521.954 130.816 522.495 132.024C523.245 133.706 523.315 136.448 521.036 138.636C519.293 140.307 517.18 141.063 514.182 141.083H514.168ZM515.12 130.286C514.892 130.286 514.661 130.293 514.424 130.306C512.694 130.401 511.616 131.179 511.677 132.285C511.74 133.445 513.045 133.983 514.3 133.917C515.452 133.857 516.954 133.416 517.207 130.49C516.569 130.355 515.871 130.286 515.12 130.286Z" fill="black" stroke="black" stroke-width="0.233333"/>
<path fill-rule="evenodd" clip-rule="evenodd" d="M558.963 118.333H565.037C566.323 118.333 567.36 118.333 568.199 118.403C569.064 118.475 569.822 118.626 570.522 118.99C571.588 119.544 572.456 120.412 573.01 121.478C573.374 122.178 573.525 122.936 573.597 123.801C573.667 124.64 573.667 125.677 573.667 126.963V133.037C573.667 134.323 573.667 135.36 573.597 136.199C573.525 137.064 573.374 137.822 573.01 138.522C572.456 139.588 571.588 140.456 570.522 141.01C569.822 141.374 569.064 141.525 568.199 141.597C567.36 141.667 566.323 141.667 565.037 141.667H558.963C557.677 141.667 556.64 141.667 555.801 141.597C554.936 141.525 554.178 141.374 553.478 141.01C552.412 140.456 551.544 139.588 550.99 138.522C550.626 137.822 550.475 137.064 550.403 136.199C550.333 135.36 550.333 134.323 550.333 133.037V126.963C550.333 125.677 550.333 124.64 550.403 123.801C550.475 122.936 550.626 122.178 550.99 121.478C551.544 120.412 552.412 119.544 553.478 118.99C554.178 118.626 554.936 118.475 555.801 118.403C556.64 118.333 557.677 118.333 558.963 118.333ZM555.994 120.728C555.276 120.788 554.865 120.899 554.553 121.061C553.914 121.393 553.393 121.914 553.061 122.553C552.899 122.865 552.788 123.276 552.728 123.994C552.668 124.725 552.667 125.665 552.667 127.013V132.987C552.667 134.335 552.668 135.275 552.728 136.006C552.788 136.724 552.899 137.135 553.061 137.447C553.393 138.086 553.914 138.607 554.553 138.939C554.865 139.101 555.276 139.212 555.994 139.272C556.725 139.332 557.665 139.333 559.013 139.333H564.987C566.335 139.333 567.275 139.332 568.006 139.272C568.724 139.212 569.135 139.101 569.447 138.939C570.086 138.607 570.607 138.086 570.939 137.447C571.101 137.135 571.212 136.724 571.272 136.006C571.332 135.275 571.333 134.335 571.333 132.987V127.013C571.333 125.665 571.332 124.725 571.272 123.994C571.212 123.276 571.101 122.865 570.939 122.553C570.607 121.914 570.086 121.393 569.447 121.061C569.135 120.899 568.724 120.788 568.006 120.728C567.275 120.668 566.335 120.667 564.987 120.667H559.013C557.665 120.667 556.725 120.668 555.994 120.728Z" fill="black"/>
<path fill-rule="evenodd" clip-rule="evenodd" d="M567.834 128.833C568.143 128.833 568.44 128.956 568.658 129.175L573.567 134.083L571.917 135.733L567.833 131.65L561.658 137.825C561.43 138.053 561.117 138.177 560.794 138.166C560.472 138.155 560.168 138.011 559.955 137.768L556.702 134.05L552.675 138.158C552.224 138.619 551.485 138.626 551.025 138.175C550.565 137.724 550.558 136.985 551.009 136.525L555.917 131.517C556.144 131.285 556.458 131.158 556.783 131.167C557.108 131.176 557.414 131.321 557.628 131.565L560.89 135.293L567.009 129.175C567.227 128.956 567.524 128.833 567.834 128.833Z" fill="black"/>
<path d="M558.5 124.75C558.5 125.716 557.716 126.5 556.75 126.5C555.783 126.5 555 125.716 555 124.75C555 123.783 555.783 123 556.75 123C557.716 123 558.5 123.783 558.5 124.75Z" fill="black"/>
<path d="M29.1683 166.415C27.9269 166.473 27.0792 166.672 26.3381 166.963C25.5712 167.262 24.9211 167.663 24.2743 168.312C23.6275 168.961 23.2292 169.612 22.9324 170.38C22.6451 171.122 22.4505 171.971 22.3957 173.213C22.3409 174.455 22.3287 174.854 22.3348 178.022C22.3409 181.191 22.3549 181.588 22.4151 182.832C22.4743 184.074 22.6717 184.921 22.9629 185.662C23.2623 186.429 23.6629 187.079 24.3123 187.726C24.9617 188.373 25.6118 188.771 26.3818 189.068C27.1238 189.355 27.9724 189.55 29.2142 189.605C30.456 189.659 30.8557 189.671 34.023 189.665C37.1903 189.659 37.5891 189.645 38.8335 189.586C40.0779 189.527 40.9209 189.328 41.6625 189.039C42.4294 188.739 43.0797 188.339 43.7263 187.689C44.3729 187.039 44.771 186.388 45.0675 185.62C45.355 184.878 45.5503 184.029 45.6042 182.788C45.6586 181.543 45.6714 181.145 45.6653 177.978C45.6593 174.81 45.645 174.413 45.586 173.169C45.527 171.924 45.3293 171.08 45.0384 170.338C44.7385 169.571 44.3383 168.921 43.6892 168.274C43.0401 167.626 42.3886 167.229 41.6202 166.933C40.8777 166.645 40.0296 166.45 38.7878 166.396C37.5459 166.342 37.1462 166.329 33.9778 166.335C30.8093 166.341 30.4126 166.354 29.1683 166.415ZM29.3045 187.506C28.167 187.456 27.5494 187.267 27.1378 187.109C26.5927 186.899 26.2044 186.645 25.7942 186.239C25.384 185.833 25.132 185.443 24.9192 184.899C24.7594 184.487 24.5669 183.871 24.5137 182.733C24.4558 181.504 24.4437 181.134 24.4369 178.02C24.4301 174.905 24.442 174.536 24.4959 173.306C24.5445 172.17 24.7347 171.551 24.8926 171.14C25.1026 170.594 25.3556 170.207 25.7627 169.797C26.1699 169.387 26.5584 169.134 27.1028 168.921C27.5139 168.761 28.1309 168.57 29.2679 168.516C30.4983 168.458 30.8669 168.446 33.9813 168.439C37.0956 168.432 37.4652 168.444 38.6961 168.498C39.8326 168.548 40.4512 168.736 40.8621 168.895C41.4074 169.105 41.7955 169.357 42.2054 169.765C42.6154 170.173 42.8681 170.56 43.0809 171.105C43.2417 171.515 43.4325 172.132 43.4862 173.27C43.5448 174.5 43.5581 174.869 43.5637 177.983C43.5693 181.097 43.5583 181.467 43.5044 182.697C43.4547 183.834 43.2662 184.452 43.1077 184.864C42.8977 185.409 42.6446 185.797 42.2372 186.207C41.8298 186.617 41.4417 186.869 40.8971 187.082C40.4864 187.242 39.8688 187.434 38.7327 187.488C37.5023 187.546 37.1336 187.558 34.0181 187.565C30.9026 187.571 30.5351 187.559 29.3048 187.506M38.8155 171.765C38.816 172.042 38.8986 172.312 39.0528 172.542C39.207 172.772 39.426 172.951 39.682 173.057C39.9381 173.162 40.2196 173.189 40.4911 173.135C40.7626 173.08 41.0119 172.947 41.2073 172.75C41.4028 172.554 41.5356 172.305 41.5892 172.033C41.6427 171.761 41.6144 171.48 41.508 171.224C41.4015 170.968 41.2216 170.75 40.9911 170.597C40.7605 170.443 40.4897 170.362 40.2127 170.362C39.8415 170.363 39.4858 170.511 39.2238 170.774C38.9618 171.037 38.8149 171.393 38.8155 171.765ZM28.0098 178.012C28.0163 181.32 30.7034 183.997 34.0114 183.99C37.3194 183.984 39.9974 181.297 39.9911 177.988C39.9848 174.68 37.297 172.003 33.9885 172.009C30.68 172.016 28.0035 174.703 28.0098 178.012ZM30.1112 178.007C30.1097 177.238 30.3362 176.486 30.7623 175.846C31.1884 175.205 31.7948 174.706 32.5048 174.41C33.2148 174.114 33.9966 174.035 34.7513 174.184C35.506 174.333 36.1997 174.702 36.7447 175.244C37.2896 175.787 37.6614 176.479 37.8129 177.234C37.9645 177.988 37.889 178.77 37.5961 179.481C37.3031 180.192 36.8059 180.801 36.1672 181.229C35.5285 181.658 34.777 181.887 34.0079 181.889C33.4971 181.89 32.9912 181.79 32.519 181.596C32.0467 181.401 31.6174 181.116 31.2555 180.755C30.8937 180.395 30.6064 179.967 30.41 179.495C30.2137 179.024 30.1121 178.518 30.1112 178.007Z" fill="black"/>
<path d="M81.4614 166.462C81.6607 165.982 82.3394 165.982 82.5386 166.462L85.412 173.37C85.496 173.572 85.6859 173.71 85.904 173.727L93.362 174.325C93.8792 174.367 94.089 175.012 93.6949 175.35L88.0126 180.217C87.8465 180.359 87.774 180.583 87.8247 180.796L89.5607 188.073C89.6811 188.578 89.1321 188.977 88.6893 188.707L82.3041 184.807C82.1174 184.692 81.8827 184.692 81.696 184.807L75.3108 188.707C74.868 188.977 74.3189 188.578 74.4393 188.073L76.1754 180.796C76.2261 180.583 76.1536 180.359 75.9874 180.217L70.3052 175.35C69.9111 175.012 70.1208 174.367 70.638 174.325L78.0961 173.727C78.3142 173.71 78.5041 173.572 78.5881 173.37L81.4614 166.462Z" fill="black"/>
<circle cx="130" cy="178" r="11.9583" stroke="black" stroke-width="1.75"/>
<path d="M130 171.583L131.886 175.404L136.103 176.017L133.051 178.991L133.772 183.191L130 181.208L126.228 183.191L126.949 178.991L123.897 176.017L128.114 175.404L130 171.583Z" fill="black"/>
<path fill-rule="evenodd" clip-rule="evenodd" d="M174.228 165.428C174.426 164.506 175.741 164.506 175.939 165.428L176.836 169.607C176.86 169.719 176.948 169.806 177.06 169.831L181.239 170.728C182.16 170.926 182.16 172.241 181.239 172.439L177.06 173.336C176.948 173.36 176.86 173.448 176.836 173.56L175.939 177.739C175.741 178.66 174.426 178.66 174.228 177.739L173.331 173.56C173.307 173.448 173.219 173.36 173.107 173.336L168.928 172.439C168.006 172.241 168.006 170.926 168.928 170.728L173.107 169.831C173.219 169.806 173.307 169.719 173.331 169.607L174.228 165.428ZM184.145 175.928C184.342 175.006 185.658 175.006 185.856 175.928L186.65 179.626C186.674 179.739 186.761 179.826 186.874 179.85L190.572 180.644C191.494 180.842 191.494 182.158 190.572 182.355L186.874 183.15C186.761 183.174 186.674 183.261 186.65 183.374L185.856 187.072C185.658 187.994 184.342 187.994 184.145 187.072L183.35 183.374C183.326 183.261 183.239 183.174 183.126 183.15L179.428 182.355C178.506 182.158 178.506 180.842 179.428 180.644L183.126 179.85C183.239 179.826 183.326 179.739 183.35 179.626L184.145 175.928ZM169.561 180.595C169.759 179.673 171.074 179.673 171.272 180.595L171.963 183.813C171.987 183.925 172.075 184.013 172.187 184.037L175.405 184.728C176.327 184.926 176.327 186.241 175.405 186.439L172.187 187.13C172.075 187.154 171.987 187.242 171.963 187.354L171.272 190.572C171.074 191.494 169.759 191.494 169.561 190.572L168.87 187.354C168.846 187.242 168.758 187.154 168.646 187.13L165.428 186.439C164.506 186.241 164.506 184.926 165.428 184.728L168.646 184.037C168.758 184.013 168.846 183.925 168.87 183.813L169.561 180.595Z" fill="black"/>
<path fill-rule="evenodd" clip-rule="evenodd" d="M224.287 171.103C222.759 173.952 219.267 175.234 216.961 173.503C216.817 173.395 216.678 173.275 216.544 173.144C216.311 172.915 216.094 172.649 215.898 172.345C215.859 172.285 215.821 172.223 215.784 172.16C215.331 171.392 214.142 171.871 214.36 172.734L217.752 186.167L234.248 186.167L237.64 172.734C237.858 171.871 236.669 171.392 236.216 172.16C236.179 172.223 236.141 172.285 236.102 172.345C235.906 172.649 235.689 172.915 235.456 173.144C235.323 173.276 235.183 173.395 235.039 173.503C232.733 175.234 229.241 173.952 227.713 171.103L226.881 169.376C226.753 168.932 226.384 168.694 226 168.667C225.616 168.694 225.248 168.932 225.119 169.376L224.287 171.103ZM226 172.789C224.728 174.772 222.702 176.151 220.518 176.522C219.575 176.682 218.612 176.648 217.693 176.405L219.569 183.833L232.431 183.833L234.307 176.405C233.388 176.648 232.425 176.682 231.482 176.522C229.298 176.151 227.272 174.772 226 172.789Z" fill="black"/>
<path fill-rule="evenodd" clip-rule="evenodd" d="M271.634 169.079C274.75 165.962 279.804 165.962 282.921 169.079C286.037 172.196 286.037 177.249 282.921 180.366L281.984 181.302C281.453 181.833 280.592 181.833 280.061 181.302C279.53 180.771 279.53 179.91 280.061 179.379L280.997 178.442C283.052 176.388 283.052 173.057 280.997 171.003C278.943 168.948 275.612 168.948 273.557 171.003L272.621 171.939C272.09 172.47 271.228 172.47 270.697 171.939C270.166 171.408 270.166 170.547 270.697 170.015L271.634 169.079ZM276.717 173.226C277.248 172.695 278.109 172.695 278.64 173.226C279.172 173.757 279.172 174.618 278.64 175.15L271.15 182.64C270.619 183.171 269.757 183.171 269.226 182.64C268.695 182.109 268.695 181.248 269.226 180.717L276.717 173.226ZM266.016 174.698C266.547 174.166 267.408 174.166 267.939 174.698C268.47 175.229 268.47 176.09 267.939 176.621L267.003 177.557C264.948 179.612 264.948 182.943 267.003 184.997C269.057 187.052 272.388 187.052 274.443 184.997L275.379 184.061C275.91 183.53 276.771 183.53 277.302 184.061C277.834 184.592 277.834 185.453 277.302 185.984L276.366 186.921C273.249 190.037 268.196 190.037 265.079 186.921C261.962 183.804 261.962 178.751 265.079 175.634L266.016 174.698Z" fill="black"/>
<path d="M330.167 175.474H327.677V173.768C327.677 169.626 325.791 167.556 322.017 167.556C320.312 167.556 318.959 168.102 317.959 169.194C316.982 170.264 316.493 171.834 316.493 173.904V182.062C316.493 183.996 316.959 185.543 317.891 186.703C318.823 187.864 320.164 188.444 321.915 188.444H322.119C323.779 188.444 325.063 188 325.972 187.113C326.904 186.248 327.37 185.111 327.37 183.7V182.232C327.37 181.436 327.28 180.787 327.098 180.287C326.939 179.763 326.666 179.365 326.279 179.092V180.253C326.279 181.845 325.904 183.074 325.154 183.939C324.427 184.781 323.392 185.202 322.051 185.202C320.914 185.202 319.96 184.826 319.187 184.075C318.414 183.302 318.027 182.278 318.027 181.004C318.027 179.684 318.402 178.637 319.153 177.863C319.926 177.09 321.005 176.703 322.392 176.703H324.029V175.304C324.029 173.756 323.415 172.983 322.187 172.983C321.596 172.983 321.153 173.176 320.858 173.563C320.562 173.95 320.414 174.439 320.414 175.031V175.781H318.232V175.099C318.232 173.688 318.607 172.619 319.357 171.89C320.107 171.162 321.051 170.798 322.187 170.798C324.915 170.798 326.279 172.255 326.279 175.167V176.942C328.644 177.556 329.826 179.456 329.826 182.642V183.529C329.826 185.896 329.098 187.705 327.643 188.956C326.188 190.208 324.324 190.833 322.051 190.833H321.915C320.369 190.833 318.982 190.492 317.755 189.809C316.55 189.149 315.595 188.171 314.89 186.874C314.186 185.577 313.833 184.041 313.833 182.266V173.768C313.833 171.947 314.186 170.389 314.89 169.092C315.618 167.795 316.595 166.816 317.823 166.156C319.05 165.497 320.448 165.167 322.017 165.167C324.586 165.167 326.586 165.906 328.018 167.385C329.451 168.864 330.167 170.992 330.167 173.768V175.474ZM321.983 183.017C322.71 183.017 323.233 182.79 323.551 182.335C323.87 181.857 324.029 181.14 324.029 180.184V178.614H322.426C321.721 178.614 321.176 178.808 320.789 179.195C320.403 179.581 320.21 180.15 320.21 180.901C320.21 181.538 320.38 182.05 320.721 182.437C321.062 182.824 321.483 183.017 321.983 183.017Z" fill="black"/>
<path d="M365.917 176.833C366.722 176.833 367.375 176.18 367.375 175.375C367.375 174.57 366.722 173.917 365.917 173.917C365.111 173.917 364.458 174.57 364.458 175.375C364.458 176.18 365.111 176.833 365.917 176.833Z" fill="black"/>
<path d="M374.083 176.833C374.889 176.833 375.542 176.18 375.542 175.375C375.542 174.57 374.889 173.917 374.083 173.917C373.278 173.917 372.625 174.57 372.625 175.375C372.625 176.18 373.278 176.833 374.083 176.833Z" fill="black"/>
<path fill-rule="evenodd" clip-rule="evenodd" d="M358.917 172.75C358.917 169.528 361.528 166.917 364.75 166.917H375.25C378.472 166.917 381.083 169.528 381.083 172.75V180.333H381.081C381.058 180.597 380.946 180.854 380.744 181.056L372.935 188.865C372.701 189.098 371.8 189.089 371.323 189.084C371.263 189.084 371.211 189.083 371.167 189.083H364.75C361.528 189.083 358.917 186.472 358.917 183.25V172.75ZM364.75 169.25H375.25C377.183 169.25 378.75 170.817 378.75 172.75V178H377C374.794 178 372.826 179.021 371.543 180.616C371.473 180.628 371.403 180.648 371.334 180.674C370.927 180.829 370.476 180.917 369.997 180.917C368.909 180.917 367.967 180.466 367.365 179.8C366.933 179.322 366.195 179.285 365.717 179.717C365.24 180.149 365.202 180.887 365.634 181.365C366.689 182.531 368.265 183.25 369.997 183.25C370.072 183.25 370.147 183.249 370.221 183.246C370.077 183.806 370 184.394 370 185V186.75H364.75C362.817 186.75 361.25 185.183 361.25 183.25V172.75C361.25 170.817 362.817 169.25 364.75 169.25ZM378.167 180.333H377C374.423 180.333 372.333 182.423 372.333 185V186.167L378.167 180.333Z" fill="black"/>
<path d="M423.276 187.333C422.24 187.333 421.401 187.001 420.758 186.337C420.133 185.673 419.82 184.808 419.82 183.742C419.82 182.71 420.106 181.898 420.677 181.303C421.249 180.692 422.088 180.228 423.196 179.914L425.124 179.363C425.589 179.241 425.919 179.075 426.116 178.865C426.312 178.655 426.41 178.341 426.41 177.921C426.41 177.345 426.223 176.881 425.848 176.532C425.473 176.182 424.946 176.007 424.267 176.007C423.642 176.007 423.133 176.191 422.74 176.558C422.365 176.908 422.178 177.406 422.178 178.052V178.551H420.088V178.052C420.088 176.864 420.463 175.92 421.213 175.221C421.981 174.522 422.999 174.172 424.267 174.172C425.625 174.172 426.669 174.504 427.402 175.169C428.134 175.833 428.5 176.785 428.5 178.026V187.019H426.464V185.105C426.267 185.804 425.883 186.355 425.312 186.757C424.74 187.141 424.062 187.333 423.276 187.333ZM423.758 185.498C424.687 185.498 425.357 185.175 425.767 184.528C426.196 183.881 426.41 183.069 426.41 182.09V180.517C426.267 180.674 426.089 180.805 425.875 180.91C425.66 180.998 425.366 181.094 424.99 181.199L423.785 181.539C422.535 181.889 421.91 182.597 421.91 183.663C421.91 184.222 422.07 184.668 422.392 185C422.731 185.332 423.187 185.498 423.758 185.498Z" fill="black"/>
<path d="M419.073 187.019H416.85L415.966 183.06H410.634L409.75 187.019H407.5L411.84 168.667H414.733L419.073 187.019ZM413.287 171.131L411.09 181.015H415.51L413.287 171.131Z" fill="black"/>
<path fill-rule="evenodd" clip-rule="evenodd" d="M464.367 174.208C464.367 171.695 466.404 169.658 468.917 169.658C471.43 169.658 473.467 171.695 473.467 174.208C473.467 176.721 471.43 178.758 468.917 178.758C466.404 178.758 464.367 176.721 464.367 174.208ZM468.917 171.758C467.564 171.758 466.467 172.855 466.467 174.208C466.467 175.561 467.564 176.658 468.917 176.658C470.27 176.658 471.367 175.561 471.367 174.208C471.367 172.855 470.27 171.758 468.917 171.758ZM460.737 175.07C461.147 174.66 461.812 174.66 462.222 175.07C462.632 175.48 462.632 176.145 462.222 176.555L457.847 180.93C457.437 181.34 456.772 181.34 456.362 180.93L454.174 178.742C453.764 178.332 453.764 177.668 454.174 177.257C454.584 176.847 455.249 176.847 455.659 177.257L457.104 178.703L460.737 175.07ZM461.158 185.477C461.158 182.217 463.801 179.575 467.061 179.575H470.773C474.032 179.575 476.675 182.217 476.675 185.477V185.795C476.675 186.419 476.169 186.925 475.545 186.925C474.922 186.925 474.416 186.419 474.416 185.795V185.477C474.416 183.465 472.785 181.834 470.773 181.834H467.061C465.049 181.834 463.417 183.465 463.417 185.477V185.795C463.417 186.419 462.912 186.925 462.288 186.925C461.664 186.925 461.158 186.419 461.158 185.795V185.477Z" fill="black"/>
<path fill-rule="evenodd" clip-rule="evenodd" d="M509.009 169.133L523.333 166.917L523.333 182.987C523.333 185.13 521.607 186.866 519.477 186.866C517.347 186.866 515.62 185.13 515.62 182.987C515.62 180.845 517.347 179.108 519.477 179.108C520.068 179.108 520.629 179.242 521.13 179.481V173.908L511.213 175.442V185.204C511.213 187.347 509.486 189.083 507.356 189.083C505.227 189.083 503.5 187.347 503.5 185.204C503.5 183.062 505.227 181.325 507.356 181.325C507.948 181.325 508.508 181.459 509.009 181.698L509.009 169.133ZM511.343 173.061V171.133L521 169.639V171.567L511.343 173.061ZM507.356 186.75C508.185 186.75 508.88 186.071 508.88 185.204C508.88 184.338 508.185 183.658 507.356 183.658C506.528 183.658 505.833 184.338 505.833 185.204C505.833 186.071 506.528 186.75 507.356 186.75ZM519.477 184.533C520.305 184.533 521 183.854 521 182.987C521 182.121 520.305 181.441 519.477 181.441C518.648 181.441 517.954 182.121 517.954 182.987C517.954 183.854 518.648 184.533 519.477 184.533Z" fill="black"/>
<path fill-rule="evenodd" clip-rule="evenodd" d="M566.375 167.5H552.667C552.022 167.5 551.5 168.022 551.5 168.667V187.333C551.5 187.978 552.022 188.5 552.667 188.5H571.333C571.978 188.5 572.5 187.978 572.5 187.333V173.625H566.375V167.5ZM553.833 186.167V182.375H557.625V186.167H553.833ZM570.167 175.958V180.042H566.375V175.958H570.167ZM570.167 182.375H566.375V186.167H570.167V182.375ZM564.042 175.958V180.042H559.958V175.958H564.042ZM564.042 182.375H559.958V186.167H564.042V182.375ZM557.625 175.958V180.042H553.833V175.958H557.625ZM557.625 173.625H553.833V169.833H557.625V173.625ZM564.042 173.625H559.958V169.833H564.042V173.625Z" fill="black"/>
<path d="M570.458 171.292C570.458 171.775 570.85 172.167 571.333 172.167C571.817 172.167 572.208 171.775 572.208 171.292V169.542H573.958C574.442 169.542 574.833 169.15 574.833 168.667C574.833 168.183 574.442 167.792 573.958 167.792H572.208V166.042C572.208 165.558 571.817 165.167 571.333 165.167C570.85 165.167 570.458 165.558 570.458 166.042V167.792H568.708C568.225 167.792 567.833 168.183 567.833 168.667C567.833 169.15 568.225 169.542 568.708 169.542H570.458V171.292Z" fill="black"/>
<defs>
<clipPath id="clip0_1111_152">
<rect width="28" height="28" fill="white" transform="translate(68 68)"/>
</clipPath>
</defs>
</svg>
