<svg width="23" height="23" viewBox="0 0 23 23" fill="none" xmlns="http://www.w3.org/2000/svg">
<path d="M7 9.91667C7.80541 9.91667 8.45833 9.26375 8.45833 8.45833C8.45833 7.65292 7.80541 7 7 7C6.19458 7 5.54167 7.65292 5.54167 8.45833C5.54167 9.26375 6.19458 9.91667 7 9.91667Z" fill="white"/>
<path d="M15.1667 9.91667C15.9721 9.91667 16.625 9.26375 16.625 8.45833C16.625 7.65292 15.9721 7 15.1667 7C14.3613 7 13.7083 7.65292 13.7083 8.45833C13.7083 9.26375 14.3613 9.91667 15.1667 9.91667Z" fill="white"/>
<path fill-rule="evenodd" clip-rule="evenodd" d="M0 5.83333C0 2.61167 2.61167 0 5.83333 0H16.3333C19.555 0 22.1667 2.61167 22.1667 5.83333V13.4167H22.1645C22.1414 13.6803 22.029 13.9375 21.8272 14.1393L14.0185 21.948C13.7846 22.1819 12.8839 22.1727 12.4061 22.1678C12.3469 22.1672 12.2941 22.1667 12.25 22.1667H5.83333C2.61167 22.1667 0 19.555 0 16.3333V5.83333ZM5.83333 2.33333H16.3333C18.2663 2.33333 19.8333 3.90034 19.8333 5.83333V11.0833H18.0833C15.877 11.0833 13.9091 12.1041 12.6261 13.6991C12.5561 13.7118 12.4863 13.7311 12.4175 13.7573C12.0108 13.9125 11.5594 14 11.0804 14C9.99242 14 9.0505 13.5491 8.44876 12.8835C8.01665 12.4055 7.27889 12.3684 6.80093 12.8005C6.32297 13.2326 6.2858 13.9703 6.71791 14.4483C7.77256 15.6149 9.34863 16.3333 11.0804 16.3333C11.1556 16.3333 11.2304 16.332 11.3049 16.3293C11.1603 16.8898 11.0833 17.4776 11.0833 18.0833V19.8333H5.83333C3.90034 19.8333 2.33333 18.2663 2.33333 16.3333V5.83333C2.33333 3.90034 3.90034 2.33333 5.83333 2.33333ZM19.25 13.4167H18.0833C15.506 13.4167 13.4167 15.506 13.4167 18.0833V19.25L19.25 13.4167Z" fill="white"/>
</svg>
